<?xml version="1.0" standalone="no"?>
<!DOCTYPE svg PUBLIC "-//W3C//DTD SVG 20010904//EN"
 "http://www.w3.org/TR/2001/REC-SVG-20010904/DTD/svg10.dtd">
<svg version="1.0" xmlns="http://www.w3.org/2000/svg"
 width="768.000000pt" height="768.000000pt" viewBox="0 0 768.000000 768.000000"
 preserveAspectRatio="xMidYMid meet">
<metadata>
Created by potrace 1.10, written by Peter Selinger 2001-2011
</metadata>
<g transform="translate(0.000000,768.000000) scale(0.100000,-0.100000)"
fill="#a1a9c3" stroke="none">
<path d="M970 7666 c0 -10 -16 -17 -47 -22 -70 -9 -195 -53 -281 -97 -56 -28
-149 -87 -192 -122 -32 -26 -189 -183 -215 -215 -105 -131 -190 -316 -224
-488 -15 -76 -15 -3800 0 -3874 28 -138 99 -308 166 -398 18 -25 43 -58 56
-75 59 -80 210 -213 314 -279 49 -30 54 -51 27 -113 -28 -64 -41 -96 -59 -143
-10 -25 -23 -58 -30 -75 -7 -16 -21 -50 -30 -75 -10 -25 -23 -58 -30 -75 -7
-16 -21 -50 -30 -75 -10 -25 -23 -58 -30 -75 -7 -16 -21 -50 -30 -75 -10 -25
-23 -58 -30 -75 -7 -16 -21 -50 -30 -75 -10 -25 -23 -58 -30 -75 -7 -16 -21
-50 -30 -75 -9 -25 -23 -58 -30 -75 -7 -16 -20 -50 -30 -75 -9 -25 -23 -58
-30 -75 -7 -16 -20 -50 -30 -75 -10 -25 -23 -58 -30 -75 -7 -16 -21 -50 -30
-75 -9 -25 -21 -53 -26 -62 -5 -10 -9 -98 -9 -195 l1 -178 32 -42 c73 -96 212
-163 337 -163 47 0 132 22 178 45 56 29 120 101 153 173 17 37 41 90 54 117
54 119 90 195 126 273 22 46 39 87 39 91 0 5 9 20 21 35 l20 26 1523 0 c1438
0 1524 -1 1538 -17 9 -10 18 -29 21 -43 3 -14 15 -50 26 -80 40 -102 52 -135
61 -165 4 -16 18 -55 30 -85 12 -30 24 -64 27 -75 5 -20 20 -57 51 -121 20
-41 116 -134 163 -158 25 -13 65 -16 187 -16 l154 0 49 36 c81 59 130 129 163
229 30 91 25 117 -59 360 -13 39 -33 95 -45 125 -12 30 -25 66 -30 80 -5 14
-18 50 -30 80 -12 30 -24 66 -27 80 -3 14 -12 34 -19 45 -8 11 -14 27 -14 36
0 10 -6 30 -14 46 -8 15 -21 46 -29 68 -22 60 -48 126 -62 160 -8 17 -28 66
-45 110 -18 44 -39 95 -46 112 -8 18 -21 47 -29 65 -8 18 -28 63 -44 101 -17
37 -31 69 -31 72 0 3 -21 48 -46 100 -25 52 -44 102 -42 111 2 9 17 24 33 33
113 62 268 191 350 291 108 131 187 294 231 470 18 72 19 153 19 1985 0 2104
5 1920 -57 2110 -61 186 -191 377 -348 507 -131 109 -356 213 -502 233 -32 4
-48 11 -48 21 0 12 -205 14 -1525 14 -1320 0 -1525 -2 -1525 -14z m1128 -1715
c1 -689 -1 -947 -9 -957 -17 -21 -1301 -21 -1318 0 -9 10 -11 218 -9 817 3
802 3 804 25 842 73 129 188 223 293 240 14 3 248 4 520 3 l495 -1 3 -944z
m1877 924 c85 -42 165 -116 195 -183 47 -104 45 -64 48 -890 2 -541 -1 -788
-8 -802 -11 -20 -20 -20 -673 -18 l-662 3 -3 945 c-1 520 0 951 3 958 4 11
105 13 532 10 502 -3 530 -4 568 -23z m230 -2671 c14 -15 16 -75 12 -618 -3
-641 -2 -626 -53 -725 -27 -53 -92 -113 -159 -146 l-60 -30 -1460 0 -1460 0
-56 28 c-72 36 -140 104 -176 176 l-28 56 -3 623 c-2 466 0 627 9 638 10 12
260 14 1715 14 1554 0 1704 -1 1719 -16z m-615 -2371 c18 -43 38 -91 45 -108
7 -16 21 -50 30 -75 10 -25 24 -58 32 -73 32 -61 118 -57 -1209 -55 l-1213 3
2 30 c2 27 10 51 48 140 7 17 21 50 30 75 10 25 23 59 31 75 7 17 15 38 18 48
5 16 65 17 1079 17 l1074 0 33 -77z"/>
<path d="M1435 3813 c-107 -33 -139 -50 -184 -93 -56 -53 -84 -111 -102 -202
-20 -109 15 -243 83 -318 98 -107 229 -154 359 -130 343 65 435 505 145 693
-98 63 -203 81 -301 50z"/>
<path d="M3380 3818 c-19 -5 -46 -12 -60 -15 -14 -3 -55 -25 -92 -50 -50 -33
-76 -59 -106 -106 -97 -153 -74 -327 62 -463 99 -98 212 -138 328 -114 149 31
252 122 302 268 27 77 19 189 -18 263 -54 108 -136 176 -255 210 -71 21 -107
22 -161 7z"/>
<path d="M6400 7665 c0 -8 -16 -19 -37 -25 -53 -14 -128 -72 -160 -123 -51
-78 -57 -104 -57 -232 0 -131 8 -164 59 -231 98 -129 173 -153 476 -154 153 0
199 -3 208 -14 8 -10 10 -568 9 -2107 l-3 -2094 -615 -6 c-386 -3 -628 -9
-650 -16 -99 -29 -182 -97 -219 -178 -53 -113 -51 -71 -51 -1144 0 -1069 -1
-1053 50 -1158 23 -47 89 -117 134 -141 80 -42 64 -42 970 -42 855 0 906 2
956 31 8 5 24 13 35 18 24 11 92 80 111 113 19 33 22 40 28 71 4 15 13 27 21
27 13 0 15 424 15 3570 0 3146 -2 3570 -15 3570 -8 0 -17 12 -20 28 -4 15 -10
34 -16 42 -5 8 -13 24 -18 35 -11 24 -80 92 -113 111 -33 19 -40 22 -70 28
-16 4 -28 13 -28 21 0 13 -65 15 -500 15 -432 0 -500 -2 -500 -15z m498 -6319
c1 -407 -1 -562 -9 -572 -10 -12 -77 -14 -378 -12 l-366 3 -3 573 -2 572 377
-2 378 -3 3 -559z"/>
</g>
</svg>
