<?xml version="1.0" encoding="utf-8"?>
<!-- Generator: Adobe Illustrator 23.0.3, SVG Export Plug-In . SVG Version: 6.00 Build 0)  -->
<svg version="1.1" id="Слой_1" xmlns="http://www.w3.org/2000/svg" xmlns:xlink="http://www.w3.org/1999/xlink" x="0px" y="0px"
	 viewBox="0 0 100 100" style="enable-background:new 0 0 100 100;" xml:space="preserve">
<style type="text/css">
	.st0{fill:none;stroke:#06ADEF;stroke-width:4;stroke-linecap:round;stroke-linejoin:round;stroke-miterlimit:10;}
	.st1{fill:none;stroke:#2D3547;stroke-width:2;stroke-miterlimit:10;}
	.st2{fill:none;stroke:#2D3547;stroke-width:4;stroke-linecap:round;stroke-linejoin:round;stroke-miterlimit:10;}
	.st3{fill:none;stroke:#2D3547;stroke-width:4;stroke-linejoin:round;stroke-miterlimit:10;}
	.st4{fill:none;stroke:#2D3547;stroke-width:4;stroke-miterlimit:10;}
</style>
<path class="st0" d="M34.6,48.2h-8.2c-1.1,0-2-0.9-2-2V38c0-1.1,0.9-2,2-2h8.2c1.1,0,2,0.9,2,2v8.2C36.6,47.3,35.7,48.2,34.6,48.2z"
	/>
<path class="st1" d="M51.6,48.2h-8.2c-1.1,0-2-0.9-2-2V38c0-1.1,0.9-2,2-2h8.2c1.1,0,2,0.9,2,2v8.2C53.6,47.3,52.7,48.2,51.6,48.2z"
	/>
<path class="st1" d="M29.5,21.4h-6.2c-1.1,0-2-0.9-2-2v-8.2c0-1.1,0.9-2,2-2h6.2c1.1,0,2,0.9,2,2l0,8.2
	C31.5,20.5,30.6,21.4,29.5,21.4z"/>
<path class="st1" d="M71.6,21.4h-6.2c-1.1,0-2-0.9-2-2v-8.2c0-1.1,0.9-2,2-2h6.2c1.1,0,2,0.9,2,2v8.2C73.6,20.5,72.7,21.4,71.6,21.4
	z"/>
<path class="st1" d="M34.6,64.6h-8.2c-1.1,0-2-0.9-2-2v-8.2c0-1.1,0.9-2,2-2h8.2c1.1,0,2,0.9,2,2v8.2C36.6,63.7,35.7,64.6,34.6,64.6
	z"/>
<path class="st1" d="M51.6,64.6h-8.2c-1.1,0-2-0.9-2-2v-8.2c0-1.1,0.9-2,2-2h8.2c1.1,0,2,0.9,2,2v8.2C53.6,63.7,52.7,64.6,51.6,64.6
	z"/>
<path class="st1" d="M34.6,81.1h-8.2c-1.1,0-2-0.9-2-2v-8.2c0-1.1,0.9-2,2-2h8.2c1.1,0,2,0.9,2,2v8.2C36.6,80.2,35.7,81.1,34.6,81.1
	z"/>
<path class="st1" d="M51.6,81.1h-8.2c-1.1,0-2-0.9-2-2v-8.2c0-1.1,0.9-2,2-2h8.2c1.1,0,2,0.9,2,2v8.2C53.6,80.2,52.7,81.1,51.6,81.1
	z"/>
<path class="st1" d="M68.6,48.2h-8.2c-1.1,0-2-0.9-2-2V38c0-1.1,0.9-2,2-2h8.2c1.1,0,2,0.9,2,2v8.2C70.6,47.3,69.7,48.2,68.6,48.2z"
	/>
<path class="st2" d="M57,86.8H16.4c-2.2,0-4.1-1.8-4.1-4.1V29.4h69.8v19.5"/>
<path class="st3" d="M12.4,29.4v-10c0-2.2,1.8-4.1,4.1-4.1h3.9"/>
<path class="st2" d="M82.1,29.4v-10c0-2.2-1.8-4.1-4.1-4.1h-2.9"/>
<line class="st4" x1="30.5" y1="15.3" x2="63.9" y2="15.3"/>
<path class="st0" d="M64.8,54.6l22.1,8.9c1.3,0.5,1.4,2.2,0.3,3L82,69.7c-0.8,0.5-1,1.7-0.4,2.5l6.8,8.6c0.6,0.7,0.4,1.8-0.3,2.3
	l-1.6,1.3l-1.6,1.3c-0.7,0.6-1.8,0.4-2.3-0.3l-6.8-8.6c-0.6-0.8-1.8-0.9-2.5-0.2l-4.3,4.3c-1,1-2.6,0.4-2.8-0.9l-3.5-23.5
	C62.4,55.1,63.6,54.1,64.8,54.6z"/>
</svg>
