<?xml version="1.0" standalone="no"?>
<!DOCTYPE svg PUBLIC "-//W3C//DTD SVG 20010904//EN"
 "http://www.w3.org/TR/2001/REC-SVG-20010904/DTD/svg10.dtd">
<svg version="1.0" xmlns="http://www.w3.org/2000/svg"
 width="297.000000pt" height="684.000000pt" viewBox="0 0 297.000000 684.000000"
 preserveAspectRatio="xMidYMid meet">
<metadata>
Created by potrace 1.10, written by Peter Selinger 2001-2011
</metadata>
<g transform="translate(0.000000,684.000000) scale(0.100000,-0.100000)"
fill="white" stroke="none">
<path d="M0 3420 l0 -3420 1485 0 1485 0 0 3420 0 3420 -1485 0 -1485 0 0
-3420z m2398 2788 c4 -13 5 -122 2 -243 l-5 -220 -1005 0 -1005 0 -3 230 c-1
126 0 235 2 242 4 10 206 13 1006 13 l1000 0 8 -22z m-1530 -2811 c1 -1525 -1
-2234 -8 -2248 -10 -18 -23 -19 -239 -19 -199 0 -230 2 -235 16 -8 22 -8 4469
1 4478 4 3 113 5 242 4 l236 -3 3 -2228z m1482 2207 c12 -30 14 -1353 2 -1371
-10 -16 -1385 -24 -1401 -8 -11 11 -18 1376 -6 1394 4 8 218 11 701 11 l694 0
10 -26z m-8 -1522 c10 -10 14 -152 16 -696 2 -629 1 -684 -14 -697 -14 -12
-131 -14 -701 -13 -438 0 -687 4 -693 10 -11 11 -15 1360 -4 1387 8 23 61 24
771 23 488 -1 615 -4 625 -14z m-2 -1542 c13 -8 15 -97 18 -686 2 -596 1 -680
-13 -700 l-15 -24 -683 0 c-518 0 -686 3 -695 12 -17 17 -17 1379 0 1396 15
15 1364 17 1388 2z m48 -1513 c14 -16 18 -455 5 -468 -5 -5 -420 -8 -1009 -7
l-999 3 -3 230 c-1 126 0 235 2 242 8 19 1989 19 2004 0z"/>
<path d="M489 6130 c-13 -8 -16 -31 -16 -137 -1 -70 3 -136 8 -145 9 -17 62
-18 904 -18 491 0 900 3 909 6 24 9 24 289 0 298 -26 10 -1787 6 -1805 -4z"/>
<path d="M503 5532 l-23 -3 -1 -2082 c-1 -1145 -2 -2110 -3 -2145 -1 -46 3
-65 14 -72 23 -15 263 -13 278 2 18 18 17 4287 0 4293 -17 5 -237 11 -265 7z"/>
<path d="M1044 5527 c-12 -7 -14 -98 -14 -600 0 -448 3 -596 12 -605 17 -17
1189 -17 1206 0 9 9 12 157 12 606 0 557 -1 594 -17 598 -33 8 -1184 9 -1199
1z"/>
<path d="M1037 3983 c-4 -3 -7 -275 -7 -603 0 -450 3 -599 12 -608 18 -18
1177 -17 1201 1 16 11 17 57 15 612 l-3 600 -606 3 c-333 1 -609 -1 -612 -5z"/>
<path d="M1037 2443 c-4 -3 -7 -277 -7 -609 0 -540 2 -602 16 -608 28 -11
1174 -7 1195 4 18 10 19 28 19 609 0 537 -2 599 -16 605 -21 8 -1199 8 -1207
-1z"/>
<path d="M479 938 c0 -2 -2 -61 -5 -133 -4 -98 -2 -134 8 -148 12 -16 63 -17
912 -17 495 0 903 3 908 8 5 5 7 71 6 148 l-3 139 -912 3 c-502 1 -913 1 -914
0z"/>
</g>
</svg>
