<?xml version="1.0" standalone="no"?>
<!DOCTYPE svg PUBLIC "-//W3C//DTD SVG 20010904//EN" "http://www.w3.org/TR/2001/REC-SVG-20010904/DTD/svg10.dtd">
<svg version="1.0" xmlns="http://www.w3.org/2000/svg" width="297.000000pt" height="684.000000pt"
  viewBox="0 0 297.000000 684.000000" preserveAspectRatio="xMidYMid meet">
  <metadata>
    Created by potrace 1.10, written by Peter Selinger 2001-2011
  </metadata>
  <g transform="translate(0.000000,684.000000) scale(0.100000,-0.100000)" fill="white" stroke="none">
    <path d="M0 3420 l0 -3420 1485 0 1485 0 0 3420 0 3420 -1485 0 -1485 0 0
-3420z m2558 2842 c9 -7 12 -62 10 -243 l-3 -234 -996 -3 c-817 -2 -998 0
-1007 11 -12 14 -18 448 -7 467 8 12 1983 14 2003 2z m-560 -584 c17 -17 17
-1379 0 -1396 -15 -15 -1364 -17 -1388 -2 -13 8 -15 97 -18 686 -2 596 -1 680
13 700 l15 24 683 0 c518 0 686 -3 695 -12z m567 -10 c3 -13 4 -1024 3 -2248
l-3 -2225 -240 0 -240 0 -3 2228 c-1 1525 1 2234 8 2248 10 18 23 19 240 19
l230 0 5 -22z m-564 -1535 c11 -11 14 -1359 3 -1387 -8 -22 -245 -29 -848 -24
-417 3 -538 6 -548 16 -17 17 -24 1367 -7 1388 6 7 20 15 32 17 53 9 1358 0
1368 -10z m-2 -1538 c11 -11 18 -1376 6 -1394 -4 -8 -218 -11 -700 -11 -676 0
-695 1 -705 19 -12 23 -14 1359 -2 1378 11 17 68 18 774 18 399 0 621 -4 627
-10z m566 -1760 l0 -240 -999 -3 c-588 -1 -1004 2 -1009 7 -9 9 -10 458 -1
473 3 4 456 7 1007 6 l1002 -3 0 -240z" />
    <path d="M680 6180 l-35 -5 0 -145 0 -145 913 -3 c726 -2 912 0 913 10 6 114
4 262 -5 274 -10 12 -127 15 -881 17 -479 1 -886 0 -905 -3z" />
    <path d="M708 5589 c-17 -9 -18 -49 -18 -609 l0 -600 23 -5 c12 -3 288 -4 612
-3 l590 3 3 604 c2 477 0 606 -10 613 -20 12 -1179 9 -1200 -3z" />
    <path d="M2182 5588 c-9 -9 -12 -500 -12 -2149 0 -1176 4 -2140 8 -2143 11 -7
280 -11 286 -5 3 3 6 970 6 2149 0 1724 -2 2145 -12 2152 -21 13 -262 10 -276
-4z" />
    <path d="M707 4048 c-16 -12 -17 -58 -15 -613 l3 -600 610 0 610 0 3 599 c1
434 -1 603 -9 612 -16 20 -1176 21 -1202 2z" />
    <path d="M702 2498 c-15 -15 -18 -1193 -3 -1203 13 -8 1197 -9 1210 0 16 10
15 1187 -1 1203 -17 17 -1189 17 -1206 0z" />
    <path d="M653 983 c-10 -3 -13 -43 -13 -148 0 -121 2 -144 16 -149 9 -3 415
-6 904 -6 768 0 891 2 903 15 12 11 14 41 13 143 -2 70 -6 134 -10 140 -5 9
-222 12 -904 11 -493 0 -903 -3 -909 -6z" />
  </g>
</svg>