<svg viewBox="0 0 240 180" xmlns="http://www.w3.org/2000/svg"><defs><linearGradient x1="49.983%" y1="-.179%" x2="49.983%" y2="100.003%" id="Email_Tickets__a"><stop stop-color="#7DA5D4" offset="41.33%"/><stop stop-color="#7BA3D3" offset="75.17%"/><stop stop-color="#749DCF" offset="87.35%"/><stop stop-color="#6993C9" offset="96.01%"/><stop stop-color="#608BC4" offset="100%"/></linearGradient><linearGradient x1="49.983%" y1=".046%" x2="49.983%" y2="100.442%" id="Email_Tickets__b"><stop stop-color="#425585" stop-opacity="0" offset="23.47%"/><stop stop-color="#425585" offset="88.78%"/></linearGradient><linearGradient x1="13.666%" y1="-30.197%" x2="86.301%" y2="130.16%" id="Email_Tickets__c"><stop stop-color="#BFD3EA" offset="0%"/><stop stop-color="#BBD0E9" offset="19.45%"/><stop stop-color="#AEC7E4" offset="40.34%"/><stop stop-color="#98B8DD" offset="61.81%"/><stop stop-color="#7DA5D4" offset="82.14%"/></linearGradient><linearGradient x1="24.992%" y1="14.473%" x2="74.975%" y2="185.501%" id="Email_Tickets__d"><stop stop-color="#BFD3EA" offset="0%"/><stop stop-color="#9DBBDE" offset="100%"/></linearGradient></defs><g fill="none" fill-rule="evenodd"><path d="M.5 70.167V59.333C.5 54.5 3.167 50.833 7.667 49L114 2.667c3-1.334 6.333-1.167 9.333.166L233 49.333c4 1.834 6.667 5.834 6.667 10.167v11L120 134 .5 70.167z" fill="url(#Email_Tickets__a)"/><path d="M233 49L123.333 2.5c-3-1.333-6.333-1.333-9.333-.167L7.667 48.667c-4.5 1.833-7.334 6.166-7.334 11v2.666C24 54.667 118.167 12.667 118.167 12.667l121.333 50.5V59c.167-4.333-2.5-8.333-6.5-10z" fill="#9DBBDE" opacity=".46"/><path d="M233 49L123.333 2.5c-3-1.333-6.333-1.333-9.333-.167L7.667 48.667C3.167 50.5.5 54.333.5 59v10.833h239.167v-11c0-4.166-2.667-8.166-6.667-9.833z" fill="url(#Email_Tickets__b)" opacity=".25"/><path d="M181.833 56c0-3.333-2-6.167-4.833-7.333-.167-.167-.5-.167-.667-.334-.5-.166-1-.333-1.5-.333H174l-56.833-.167a7.742 7.742 0 0 0-3.834 1c-2.5 1.334-4.166 4-4.166 7v18.334c.166 0 .5 0 .666.166.167 0 .167 0 .334.167.166 0 .166 0 .333.167.167 0 .167.166.333.166L111 75l.333.333s.167 0 .167.167c.167.167.167.333.333.333.167.167.167.334.334.5.166.167.166.334.166.667 0 .167.167.5.167.667v.5c0 2-1.5 3.666-3.5 3.666L108.667 153c0 4.5 3.5 8 7.833 8l56.833.167c4.334 0 8-3.5 8-8L181.667 82c-2 0-3.5-1.667-3.5-3.833v-.5c0-.5.166-.834.333-1.334.167-.166.167-.333.333-.5.167-.166.167-.333.334-.333 0 0 .166 0 .166-.167l.334-.333.166-.167c.167 0 .167-.166.334-.166.166 0 .333-.167.333-.167h1l.333-18.5zm-20.166 22.167c0 1-.834 1.666-1.667 1.666-1 0-1.667-.833-1.667-1.666v-.5c.167-.5.5-1 1-1.167.167 0 .334-.167.5-.167.167 0 .334 0 .5.167.5.167.834.667 1 1.167.167.166.334.333.334.5zm-11-.5c.166-.5.5-1 1-1.167.166 0 .333-.167.5-.167.166 0 .333 0 .5.167.5.167.833.667 1 1.167v.5c0 1-.834 1.666-1.667 1.666-1 0-1.667-.833-1.667-1.666.167-.334.167-.334.334-.5zM139.333 78c0 1-.833 1.667-1.666 1.667-1 0-1.667-.834-1.667-1.667v-.5c.167-.5.5-1 1-1.167.167 0 .333-.166.5-.166.167 0 .333 0 .5.166.5.167.833.667 1 1.167.333.167.333.333.333.5zm-10.5-.5c.167-.5.5-1 1-1.167.167 0 .334-.166.5-.166.167 0 .334 0 .5.166.5.167.834.667 1 1.167v.5c0 1-.833 1.667-1.666 1.667-1 0-1.667-.834-1.667-1.667.333-.167.333-.333.333-.5zM116 79.667c-1 0-1.667-.834-1.667-1.667v-.5c.167-.5.5-1 1-1.167.167 0 .334-.166.5-.166.167 0 .334 0 .5.166.5.167.834.667 1 1.167v.5c.334.833-.5 1.667-1.333 1.667zM121.5 78v-.5c.167-.5.5-1 1-1.167.167 0 .333-.166.5-.166.167 0 .333 0 .5.166.5.167.833.667 1 1.167v.5c0 1-.833 1.667-1.667 1.667-.5 0-1.333-.834-1.333-1.667zm23.5 1.667c-1 0-1.667-.834-1.667-1.667v-.5c.167-.5.5-1 1-1.167.167 0 .334-.166.5-.166.167 0 .334 0 .5.166.5.167.834.667 1 1.167v.5c.334 1-.5 1.667-1.333 1.667zm22.167.166c-1 0-1.667-.833-1.667-1.666v-.5c.167-.5.5-1 1-1.167.167 0 .333-.167.5-.167.167 0 .333 0 .5.167.5.167.833.667 1 1.167v.5c.333.833-.5 1.666-1.333 1.666zm9-1.666c0 1-.834 1.666-1.667 1.666-1 0-1.667-.833-1.667-1.666v-.5c.167-.5.5-1 1-1.167.167 0 .334-.167.5-.167.167 0 .334 0 .5.167.5.167.834.667 1 1.167.167.166.334.333.334.5z" fill="#425685" fill-rule="nonzero"/><path d="M175.667 76.833c0 2 1.5 3.834 3.5 3.834l-.334 71.166c0 4.5-3.666 8-8 8L114 159.667c-4.333 0-8-3.667-7.833-8L106.5 80.5c1.833 0 3.5-1.667 3.5-3.667 0-2-1.5-3.666-3.333-3.833V54.667c0-4.5 3.666-8 8-8l56.833.166c4.333 0 8 3.667 7.833 8v18.334c-2-.167-3.666 1.5-3.666 3.666zm-62.167-2c-1 0-1.667.834-1.667 1.667 0 1 .834 1.667 1.667 1.667 1 0 1.667-.834 1.667-1.667 0-.833-.667-1.667-1.667-1.667zm7.333 0c-1 0-1.666.834-1.666 1.667 0 1 .833 1.667 1.666 1.667.834 0 1.667-.834 1.667-1.667 0-.833-.833-1.667-1.667-1.667zm7.167 0c-1 0-1.667.834-1.667 1.667 0 1 .834 1.667 1.667 1.667 1 0 1.667-.834 1.667-1.667.166-.833-.667-1.667-1.667-1.667zm7.333.167c-1 0-1.666.833-1.666 1.667 0 1 .833 1.666 1.666 1.666 1 0 1.667-.833 1.667-1.666 0-1-.667-1.667-1.667-1.667zm7.167 0c-1 0-1.667.833-1.667 1.667 0 1 .834 1.666 1.667 1.666 1 0 1.667-.833 1.667-1.666.166-1-.667-1.667-1.667-1.667zm7.333 0c-1 0-1.666.833-1.666 1.667 0 1 .833 1.666 1.666 1.666.834 0 1.667-.833 1.667-1.666 0-.834-.667-1.667-1.667-1.667zm7.667 0c-1 0-1.667.833-1.667 1.667 0 1 .834 1.666 1.667 1.666.833 0 1.667-.833 1.667-1.666 0-.834-.667-1.667-1.667-1.667zm7.333 0c-1 0-1.666.833-1.666 1.667 0 1 .833 1.666 1.666 1.666.834 0 1.667-.833 1.667-1.666 0-.834-.833-1.667-1.667-1.667zM172 75c-1 0-1.667.833-1.667 1.667 0 1 .834 1.666 1.667 1.666 1 0 1.667-.833 1.667-1.666C173.667 75.833 173 75 172 75z" fill="#FFF" fill-rule="nonzero"/><g fill="#242F65"><path d="M136.5 101.333V113h-11.667v-11.667H136.5zm3.833-3.833L121 97.333l-.167 19.334 19.334.166.166-19.333z" fill-rule="nonzero"/><path d="M133.333 104.333h-5.5v5.5h5.5z"/><path d="M160.667 101.333V113H149v-11.667h11.667zM164.5 97.5l-19.333-.167-.167 19.334 19.333.166.167-19.333z" fill-rule="nonzero"/><path d="M157.667 104.5h-5.5v5.5h5.5zm-7 17.167h-5.5v5.5h5.5z"/><path d="M158.5 131v3.833h-3.833V131h3.833zm3.833-3.833h-11.5v11.5h11.5v-11.5zm-26-1.834V137h-11.666v-11.667h11.666zm3.834-3.833l-19.334-.167-.166 19.334 19.333.166.167-19.333z" fill-rule="nonzero"/><path d="M133.333 128.5h-5.5v5.5h5.5zm31.167-6.833h-3.833l-.167 15.666-15.5-.166V141h19.333z"/></g><path fill="#EF4849" d="M115.084 59.702l.023-5.167 55.666.242-.022 5.167z"/><path fill="#9CBADC" d="M114.983 68.105l.023-5.167 27.834.121-.023 5.167z"/><path d="M171.5 46.667l-56.833-.167c-4.334 0-8 3.5-8 8v18.333c1.833 0 3.166 1.5 3.333 3.334h2.167c.166-.667.833-1.334 1.666-1.334.834 0 1.334.5 1.667 1.334h4c.167-.667.833-1.334 1.667-1.334.833 0 1.333.5 1.666 1.334h4c.167-.667.834-1.334 1.667-1.334.833 0 1.333.5 1.667 1.334h4c.166-.667.833-1.334 1.666-1.334.834 0 1.334.5 1.667 1.334h4c.167-.667.833-1.334 1.667-1.334.833 0 1.333.5 1.666 1.334h4c.167-.667.834-1.334 1.667-1.334.833 0 1.333.5 1.667 1.334h4.5c.166-.667.833-1.334 1.666-1.334.834 0 1.334.5 1.667 1.334h4c.167-.667.833-1.334 1.667-1.334.833 0 1.333.5 1.666 1.334h4c.167-.667.834-1.334 1.667-1.334.833 0 1.333.5 1.667 1.334h2.166c.167-1.834 1.667-3.334 3.5-3.334V54.5c-1-4.167-4.5-7.833-8.833-7.833z" fill="#EF4849"/><path d="M140.333 40.167c0-3.334-2-6.167-4.833-7.334-.167-.166-.5-.166-.667-.333-.5-.167-1-.333-1.5-.333h-.833L75.667 32a7.742 7.742 0 0 0-3.834 1c-2.5 1.333-4.166 4-4.166 7v18.333c.166 0 .5 0 .666.167.167 0 .167 0 .334.167.166 0 .166 0 .333.166.167 0 .167.167.333.167l.167.167.333.333s.167 0 .167.167c.167.166.167.333.333.333.167.167.167.333.334.5.166.167.166.333.166.667 0 .166.167.5.167.666v.5c0 2-1.5 3.667-3.5 3.667l-.333 71.167c0 4.5 3.5 8 7.833 8l56.833.166c4.334 0 8-3.5 8-8l.334-71.166c-2 0-3.5-1.667-3.5-3.834v-.5c0-.5.166-.833.333-1.333.167-.167.167-.333.333-.5.167-.167.167-.333.334-.333 0 0 .166 0 .166-.167l.334-.333.166-.167c.167 0 .167-.167.334-.167.166 0 .333-.166.333-.166h1l.333-18.5zm-20.166 22c0 1-.834 1.666-1.667 1.666-1 0-1.667-.833-1.667-1.666v-.5c.167-.5.5-1 1-1.167.167 0 .334-.167.5-.167.167 0 .334 0 .5.167.5.167.834.667 1 1.167.334.166.334.333.334.5zm-11-.5c.166-.5.5-1 1-1.167.166 0 .333-.167.5-.167.166 0 .333 0 .5.167.5.167.833.667 1 1.167v.5c0 1-.834 1.666-1.667 1.666-1 0-1.667-.833-1.667-1.666.334-.167.334-.334.334-.5zM98 62c0 1-.833 1.667-1.667 1.667-1 0-1.666-.834-1.666-1.667v-.5c.166-.5.5-1 1-1.167.166 0 .333-.166.5-.166.166 0 .333 0 .5.166.5.167.833.667 1 1.167.333.167.333.333.333.5zm-10.5-.5c.167-.5.5-1 1-1.167.167 0 .333-.166.5-.166.167 0 .333 0 .5.166.5.167.833.667 1 1.167v.5c0 1-.833 1.667-1.667 1.667-1 0-1.666-.834-1.666-1.667.166-.167.333-.333.333-.5zm-13 2.167c-1 0-1.667-.834-1.667-1.667v-.5c.167-.5.5-1 1-1.167.167 0 .334-.166.5-.166.167 0 .334 0 .5.166.5.167.834.667 1 1.167v.5c.5.833-.333 1.667-1.333 1.667zM80.167 62v-.5c.166-.5.5-1 1-1.167.166 0 .333-.166.5-.166.166 0 .333 0 .5.166.5.167.833.667 1 1.167v.5c0 1-.834 1.667-1.667 1.667-.667 0-1.333-.834-1.333-1.667zm23.5 1.833c-1 0-1.667-.833-1.667-1.666v-.5c.167-.5.5-1 1-1.167.167 0 .333-.167.5-.167.167 0 .333 0 .5.167.5.167.833.667 1 1.167v.5c.333.833-.5 1.666-1.333 1.666zm22.166 0c-1 0-1.666-.833-1.666-1.666v-.5c.166-.5.5-1 1-1.167.166 0 .333-.167.5-.167.166 0 .333 0 .5.167.5.167.833.667 1 1.167v.5c.333 1-.5 1.666-1.334 1.666zm8.834-1.666c0 1-.834 1.666-1.667 1.666-1 0-1.667-.833-1.667-1.666v-.5c.167-.5.5-1 1-1.167.167 0 .334-.167.5-.167.167 0 .334 0 .5.167.5.167.834.667 1 1.167.334.166.334.333.334.5z" fill="#425685" fill-rule="nonzero"/><path d="M134.5 60.5c0 2 1.5 3.833 3.5 3.833l-.333 71.167c0 4.5-3.667 8-8 8l-56.834-.167c-4.333 0-8-3.666-7.833-8l.333-71.166c1.834 0 3.5-1.667 3.5-3.667 0-2-1.5-3.667-3.333-3.833V38.333c0-4.5 3.667-8 8-8l56.833.167c4.334 0 8 3.667 7.834 8v18.333c-2-.166-3.667 1.5-3.667 3.667zm-62.167-2c-1 0-1.666.833-1.666 1.667 0 1 .833 1.666 1.666 1.666.834 0 1.667-.833 1.667-1.666.167-.834-.667-1.667-1.667-1.667zm7.334 0c-1 0-1.667.833-1.667 1.667 0 1 .833 1.666 1.667 1.666.833 0 1.666-.833 1.666-1.666 0-.834-.666-1.667-1.666-1.667zm7.166 0c-1 0-1.666.833-1.666 1.667 0 1 .833 1.666 1.666 1.666 1 0 1.667-.833 1.667-1.666.167-.834-.667-1.667-1.667-1.667zm7.334.167c-1 0-1.667.833-1.667 1.666 0 1 .833 1.667 1.667 1.667 1 0 1.666-.833 1.666-1.667 0-1-.666-1.666-1.666-1.666zm7.166 0c-1 0-1.666.833-1.666 1.666 0 1 .833 1.667 1.666 1.667.834 0 1.667-.833 1.667-1.667.167-1-.667-1.666-1.667-1.666zm7.334 0c-1 0-1.667.833-1.667 1.666 0 1 .833 1.667 1.667 1.667.833 0 1.666-.833 1.666-1.667 0-.833-.666-1.666-1.666-1.666zm7.666 0c-1 0-1.666.833-1.666 1.666 0 1 .833 1.667 1.666 1.667.834 0 1.667-.833 1.667-1.667 0-.833-.667-1.666-1.667-1.666zm7.334 0c-1 0-1.667.833-1.667 1.666 0 1 .833 1.667 1.667 1.667.833 0 1.666-.833 1.666-1.667 0-.833-.833-1.666-1.666-1.666zm7.166.166c-1 0-1.666.834-1.666 1.667 0 1 .833 1.667 1.666 1.667 1 0 1.667-.834 1.667-1.667 0-1-.667-1.667-1.667-1.667z" fill="#FFF" fill-rule="nonzero"/><path d="M130.333 30.333l-57-.333c-4.333 0-8 3.5-8 8v18.333c1.834 0 3.167 1.5 3.334 3.334h2.166c.167-.667.834-1.334 1.667-1.334.833 0 1.333.5 1.667 1.334h4c.166-.667.833-1.334 1.666-1.334.834 0 1.334.5 1.667 1.334h4c.167-.667.833-1.334 1.667-1.334.833 0 1.333.5 1.666 1.334h4c.167-.667.834-1.334 1.667-1.334.833 0 1.333.5 1.667 1.334h4c.166-.667.833-1.334 1.666-1.334.834 0 1.334.5 1.667 1.334h4c.167-.667.833-1.334 1.667-1.334.833 0 1.333.5 1.666 1.334h4.5c.167-.667.834-1.334 1.667-1.334.833 0 1.333.5 1.667 1.334h4c.166-.667.833-1.334 1.666-1.334.834 0 1.334.5 1.667 1.334h4c.167-.667.833-1.334 1.667-1.334.833 0 1.333.5 1.666 1.334h2.167c.167-1.834 1.667-3.334 3.5-3.334V38c-.833-4-4.333-7.667-8.667-7.667z" fill="#EF4849"/><g fill="#242F65"><path d="M95.333 85v11.667H83.667V85h11.666zm3.834-3.833L79.833 81l-.166 19.333L99 100.5l.167-19.333z" fill-rule="nonzero"/><path d="M92.167 88h-5.5v5.5h5.5z"/><path d="M119.667 85v11.667H108V85h11.667zm3.666-3.667L104 81.167l-.167 19.333 19.334.167.166-19.334z" fill-rule="nonzero"/><path d="M116.5 88.167H111v5.5h5.5zm-7 17.166H104v5.5h5.5z"/><path d="M117.333 114.667v3.833H113.5v-3.833h3.833zm3.834-3.834h-11.5v11.5h11.5v-11.5zM95.333 109v11.667H83.667V109h11.666zm3.834-3.667l-19.334-.166-.166 19.333 19.333.167.167-19.334z" fill-rule="nonzero"/><path d="M92.167 112.167h-5.5v5.5h5.5zm31.166-6.834H119.5L119.333 121l-15.5-.167v3.834h19.334z"/></g><path fill="url(#Email_Tickets__c)" d="M118.167 124.333L.5 70.167V178.5h239.167V70.167z"/><path d="M.5 178.5l108.333-67c6.167-3.833 13.667-3.833 19.834-.167l111 67H.5v.167z" fill="url(#Email_Tickets__d)"/></g></svg>