<?xml version="1.0" standalone="no"?>
<!DOCTYPE svg PUBLIC "-//W3C//DTD SVG 20010904//EN"
 "http://www.w3.org/TR/2001/REC-SVG-20010904/DTD/svg10.dtd">
<svg version="1.0" xmlns="http://www.w3.org/2000/svg"
 width="783.000000pt" height="534.000000pt" viewBox="0 0 783.000000 534.000000"
 preserveAspectRatio="xMidYMid meet">
<metadata>
Created by potrace 1.10, written by Peter Selinger 2001-2011
</metadata>
<g transform="translate(0.000000,534.000000) scale(0.100000,-0.100000)"
fill="#000000" stroke="none">
<path d="M920 4991 c0 -410 4 -471 32 -471 14 0 25 12 35 40 9 22 19 40 22 40
20 0 33 -102 32 -243 -1 -108 3 -169 14 -210 16 -63 19 -107 8 -107 -5 0 -27
16 -51 35 -43 34 -44 34 -125 29 -45 -3 -109 -2 -142 3 -55 7 -60 10 -60 33 0
25 1 25 99 30 78 4 101 9 109 22 8 12 7 21 -3 33 -20 24 -203 18 -242 -7 -51
-34 -48 -124 5 -157 26 -16 44 -18 97 -14 53 4 68 2 79 -11 12 -15 11 -19 -7
-32 -27 -19 -28 -50 -2 -64 52 -28 2 -63 -71 -50 -95 18 -146 -20 -135 -100
10 -72 26 -81 153 -87 93 -4 111 -2 123 12 10 12 11 21 3 33 -8 14 -27 17 -95
17 -86 0 -118 11 -118 41 0 29 41 37 168 32 l124 -5 44 33 c24 19 46 34 49 34
9 0 5 -48 -9 -112 -8 -35 -14 -108 -15 -163 0 -107 -21 -295 -32 -295 -3 0
-10 23 -15 51 -9 49 -34 83 -50 66 -4 -4 -11 -28 -15 -54 -9 -58 -10 -1377 -1
-1448 6 -44 10 -50 31 -50 20 0 26 8 35 40 7 22 16 39 21 38 16 -4 23 -78 24
-240 1 -101 6 -171 16 -210 16 -60 20 -123 8 -123 -4 0 -22 15 -41 33 l-33 32
-143 5 c-149 5 -190 17 -165 46 8 10 39 14 110 14 96 0 99 1 105 24 3 14 3 30
-1 35 -4 7 -49 11 -115 11 -101 0 -111 -2 -137 -24 -23 -20 -28 -32 -28 -70 0
-71 26 -91 120 -91 86 0 106 -11 81 -46 -20 -29 -21 -58 -1 -65 18 -7 20 -50
2 -57 -7 -2 -35 -1 -62 3 -100 16 -140 -10 -140 -92 0 -42 4 -53 28 -74 26
-22 37 -24 127 -24 115 0 130 4 130 36 0 29 -15 33 -130 36 -79 3 -85 5 -88
25 -2 14 4 26 18 33 22 12 216 16 249 5 11 -3 34 7 64 30 25 19 49 35 53 35 7
0 1 -58 -16 -135 -6 -27 -11 -118 -11 -201 0 -179 -10 -208 -51 -159 -61 70
-68 23 -68 -436 l0 -329 40 0 40 0 0 65 c0 36 4 65 9 65 9 0 21 -57 21 -102 0
-27 2 -28 55 -28 l55 0 0 2670 0 2670 -110 0 -110 0 0 -349z m62 -968 c25 -23
24 -87 -2 -113 -21 -21 -83 -27 -109 -11 -8 5 -14 23 -14 40 1 17 2 44 2 59 2
50 78 66 123 25z m7 -2647 c21 -25 9 -86 -21 -109 -23 -17 -34 -19 -65 -11
-38 9 -38 9 -41 66 -3 55 -2 58 29 77 29 18 35 18 59 6 15 -7 32 -20 39 -29z
m37 -774 c-3 -25 -6 -130 -6 -233 0 -119 -4 -189 -10 -189 -6 0 -10 87 -10
240 0 216 2 239 16 233 13 -5 15 -15 10 -51z"/>
<path d="M1550 2670 l0 -2670 50 0 c33 0 50 4 51 13 4 43 -2 984 -7 1037 -3
36 -12 102 -20 147 -10 53 -12 89 -6 99 8 14 10 12 16 -12 4 -15 15 -34 24
-41 57 -45 60 -46 200 -47 l137 -1 3 -32 3 -32 -103 -3 c-97 -3 -103 -4 -106
-25 -5 -33 22 -41 131 -39 98 1 99 2 128 34 32 36 36 69 14 112 -19 36 -40 43
-123 38 -64 -3 -67 -2 -70 20 -2 13 4 32 13 42 15 16 15 20 -2 54 -15 32 -15
38 -2 51 13 13 23 14 66 4 70 -16 106 -1 127 52 14 36 15 43 1 69 -27 52 -49
60 -167 60 -64 0 -109 -4 -113 -11 -4 -5 -4 -21 -1 -35 6 -23 9 -24 107 -24
81 0 101 -3 106 -16 12 -31 -16 -39 -162 -44 -136 -5 -145 -6 -170 -30 -15
-14 -33 -38 -40 -55 -11 -26 -14 -28 -20 -12 -4 10 -2 44 6 75 17 72 15 49 29
377 9 198 11 509 7 1060 -6 743 -13 920 -38 967 -5 10 -7 35 -3 54 l7 37 12
-29 c7 -16 27 -41 46 -55 33 -26 36 -26 164 -22 143 5 170 -2 159 -44 -6 -22
-11 -23 -104 -23 -91 0 -99 -2 -105 -20 -13 -41 8 -48 125 -45 60 2 114 6 121
10 6 4 20 27 31 52 19 43 19 44 -1 76 -32 51 -52 59 -123 47 -75 -12 -87 -4
-70 43 16 44 15 57 -3 77 -12 13 -13 20 -2 34 11 15 19 15 65 5 85 -18 142 21
142 96 0 68 -30 84 -170 91 l-109 6 -7 -27 c-4 -14 -3 -30 2 -35 5 -5 54 -11
109 -12 79 -2 100 -6 102 -18 7 -38 -11 -43 -154 -46 -76 -1 -141 -3 -145 -3
-5 -1 -26 -19 -47 -40 -48 -48 -57 -37 -36 52 17 74 23 239 31 805 l6 422 -56
0 -56 0 0 -2670z m277 1359 c7 -7 13 -31 13 -59 0 -41 -4 -52 -27 -69 -27 -22
-41 -21 -93 3 -29 13 -45 53 -36 90 12 48 101 69 143 35z m-21 -2627 c18 -11
34 -49 34 -77 0 -75 -75 -101 -131 -46 -31 31 -37 65 -15 93 22 30 87 47 112
30z"/>
<path d="M1680 4983 c0 -275 3 -367 14 -397 15 -44 38 -62 54 -43 25 30 32
117 32 450 l0 347 -50 0 -50 0 0 -357z"/>
<path d="M6050 4961 c0 -446 6 -484 66 -389 26 41 27 41 36 19 4 -12 8 -42 7
-64 -1 -118 13 -349 26 -405 8 -35 15 -67 15 -73 0 -18 -25 -8 -56 22 l-33 32
-140 1 c-113 1 -143 4 -156 17 -9 9 -13 23 -9 32 5 13 24 17 107 19 l102 3 0
30 0 30 -95 1 c-127 2 -162 -10 -174 -57 -14 -56 -1 -102 35 -123 25 -15 42
-17 96 -11 54 6 68 4 84 -11 15 -14 21 -14 34 -4 8 7 34 13 57 13 50 0 78 -28
78 -78 0 -64 -86 -98 -137 -56 -17 14 -23 30 -23 61 0 34 -3 41 -17 38 -19 -4
-23 -51 -8 -97 l8 -24 -76 5 c-76 5 -107 -4 -129 -36 -11 -16 -10 -94 2 -116
15 -28 65 -39 170 -37 l95 2 0 30 0 30 -98 3 c-94 3 -98 4 -109 28 -18 40 2
45 161 42 l144 -2 38 43 38 43 7 -26 c3 -14 3 -34 -1 -43 -17 -45 -38 -198
-39 -288 -2 -111 -8 -129 -40 -121 -13 3 -31 -1 -42 -8 -18 -14 -19 -38 -19
-774 0 -418 3 -764 8 -768 4 -4 24 0 44 10 27 13 33 20 24 29 -14 14 -15 67
-1 67 6 0 10 -14 10 -31 0 -17 4 -38 10 -48 5 -10 12 -80 15 -157 9 -209 12
-245 25 -296 7 -26 9 -55 6 -65 -6 -15 -11 -13 -34 14 -42 48 -59 52 -194 52
-131 -1 -172 9 -166 39 3 14 19 17 105 20 89 2 104 5 113 22 5 10 7 26 4 34
-5 13 -25 16 -118 16 -137 0 -156 -11 -164 -88 -4 -46 -2 -53 24 -78 27 -25
33 -26 100 -20 57 4 74 2 84 -9 10 -13 10 -19 -4 -33 -19 -22 -20 -42 -4 -77
17 -39 0 -48 -84 -46 -94 2 -110 -8 -116 -80 -3 -48 -1 -57 22 -78 24 -22 34
-24 137 -25 94 -1 113 2 122 16 8 12 7 21 -2 32 -11 13 -34 16 -113 16 l-99 0
3 33 3 32 151 3 150 2 33 35 c52 56 62 29 32 -80 -7 -23 -13 -153 -16 -299 -5
-307 -17 -352 -41 -146 -4 43 -11 59 -31 73 -13 11 -27 16 -31 12 -4 -4 -8
-184 -10 -401 l-3 -394 41 0 40 0 0 64 c0 67 19 104 22 44 2 -48 4 -81 6 -95
1 -9 20 -13 52 -13 41 0 50 3 51 18 1 9 2 1211 3 2669 l1 2653 -107 0 -108 0
0 -379z m100 -1602 c0 -26 -4 -38 -11 -34 -6 4 -8 14 -5 22 4 9 1 22 -5 29 -6
7 -8 18 -4 24 12 20 25 -1 25 -41z m0 -114 c0 -8 -4 -15 -10 -15 -5 0 -10 7
-10 15 0 8 5 15 10 15 6 0 10 -7 10 -15z m-54 -1856 c29 -18 34 -26 34 -59 0
-46 -35 -80 -83 -80 -102 0 -100 150 2 159 7 0 29 -8 47 -20z m59 -1042 c0
-110 -4 -178 -10 -179 -6 -2 -11 64 -13 180 -2 145 0 183 10 180 10 -4 13 -47
13 -181z"/>
<path d="M6671 2670 l0 -2670 58 0 59 0 7 75 c8 93 25 89 25 -6 l0 -69 35 0
35 0 0 389 c0 345 -2 391 -16 406 -22 21 -39 14 -39 -17 0 -14 -7 -33 -15 -43
-8 -9 -13 -30 -12 -45 2 -16 -1 -31 -6 -34 -6 -4 -12 44 -16 122 -10 196 -23
361 -36 426 -6 32 -9 61 -6 63 3 3 26 -13 53 -35 l48 -39 121 5 c134 5 167 -4
162 -41 -3 -20 -10 -22 -97 -27 -73 -4 -96 -9 -104 -22 -8 -12 -7 -21 1 -31
10 -12 33 -14 120 -10 105 5 108 5 135 36 67 77 -3 171 -110 146 -55 -12 -73
-11 -80 7 -3 8 3 28 14 43 19 25 19 30 6 55 -20 38 -14 72 12 68 11 -2 39 -6
61 -9 106 -13 162 93 87 163 -25 23 -32 24 -137 22 l-111 -3 0 -30 0 -30 97
-3 c109 -3 139 -18 94 -47 -20 -13 -48 -16 -143 -14 -126 2 -152 -4 -186 -48
-28 -35 -51 -31 -43 10 21 100 37 255 36 347 -1 58 3 129 8 159 5 29 7 62 5
72 -3 10 -2 27 2 36 8 19 20 -16 32 -97 2 -19 16 -48 30 -65 14 -16 23 -22 19
-12 -3 9 -1 29 4 42 14 36 14 1473 1 1508 -14 36 -27 34 -48 -5 -16 -30 -18
-80 -23 -563 -3 -291 -8 -523 -12 -515 -4 8 -9 310 -12 670 -3 371 -9 672 -14
695 -23 93 -34 177 -25 186 6 6 26 -3 53 -25 l44 -35 96 6 c53 3 118 3 144 -1
44 -7 47 -9 44 -34 -3 -27 -4 -27 -97 -32 -75 -4 -96 -9 -105 -22 -8 -13 -7
-21 4 -32 12 -11 38 -13 129 -7 114 6 115 6 132 36 25 43 23 79 -8 115 -26 32
-28 32 -99 28 -87 -6 -99 2 -78 50 12 29 12 41 2 69 -10 29 -10 36 2 43 8 5
22 8 30 6 63 -18 97 -16 123 4 37 29 55 92 37 126 -21 39 -43 46 -156 50 -96
3 -104 2 -115 -17 -21 -40 -6 -48 98 -51 97 -3 98 -3 98 -28 0 -24 -4 -25 -70
-33 -38 -4 -102 -5 -141 -2 l-71 6 -45 -41 c-25 -22 -49 -40 -53 -40 -4 0 -4
17 -1 38 3 20 6 48 6 61 0 13 4 29 10 36 6 7 12 77 15 156 6 168 14 261 25
279 13 21 30 1 30 -34 0 -19 7 -39 15 -46 37 -31 40 -4 43 415 l3 405 -110 0
-110 0 0 -2670z m280 1354 c27 -25 25 -85 -3 -111 -36 -32 -44 -34 -82 -18
-40 17 -56 40 -56 84 0 63 90 92 141 45z m-32 -2614 c4 0 17 -9 29 -20 31 -29
29 -79 -4 -115 -21 -23 -31 -27 -61 -22 -53 9 -75 33 -71 81 2 33 9 44 37 63
19 13 41 21 49 18 7 -3 17 -5 21 -5z m-109 -821 c0 -10 -4 -19 -10 -19 -5 0
-10 12 -10 26 0 14 4 23 10 19 6 -3 10 -15 10 -26z m0 -239 c0 -107 -4 -170
-10 -170 -6 0 -10 63 -10 170 0 107 4 170 10 170 6 0 10 -63 10 -170z"/>
<path d="M183 4413 c6 -93 8 -784 4 -928 l-2 -50 330 3 c182 2 338 6 347 8 10
3 18 11 18 19 0 28 -65 37 -319 41 -272 5 -313 12 -327 57 -5 16 1 28 24 48
l31 28 -10 68 c-6 37 -8 89 -4 115 4 31 1 59 -9 82 -10 25 -12 50 -6 97 4 35
4 122 -1 193 -4 71 -6 133 -3 137 2 5 20 11 39 15 37 7 45 18 20 28 -29 11
-14 23 44 36 42 9 128 11 285 8 l226 -4 10 30 c20 58 16 63 -57 69 -38 3 -198
6 -357 7 l-289 1 6 -108z"/>
<path d="M1883 4511 c-45 -3 -85 -9 -88 -13 -6 -5 29 -75 38 -79 1 0 927 -2
2057 -5 2038 -4 2055 -4 2087 15 31 20 53 64 38 79 -8 9 -4016 11 -4132 3z"/>
<path d="M7005 4513 c-98 -5 -102 -13 -42 -83 24 -28 31 -31 50 -22 40 19 50
19 253 13 l202 -7 40 -42 c22 -23 46 -42 52 -42 9 0 10 -17 4 -62 -4 -35 -9
-126 -10 -203 -3 -207 -12 -335 -26 -378 -12 -38 -11 -39 32 -76 44 -38 44
-38 24 -58 -42 -45 -70 -50 -284 -58 -205 -7 -336 -18 -348 -29 -3 -4 0 -12 7
-19 9 -9 90 -12 316 -14 167 -1 308 -3 312 -6 4 -3 19 -1 32 4 22 9 23 12 16
62 -5 28 -8 70 -7 92 0 22 2 241 4 488 l3 447 -280 -2 c-154 -1 -311 -4 -350
-5z"/>
<path d="M4110 3640 c-10 -6 42 -10 155 -10 113 0 165 4 155 10 -8 5 -78 10
-155 10 -77 0 -147 -5 -155 -10z"/>
<path d="M2340 3513 c-309 -10 -506 -24 -520 -39 -26 -26 6 -34 135 -34 885
-5 3998 -1 4023 4 17 4 32 11 32 15 0 4 -19 16 -42 26 -39 18 -71 20 -373 22
-380 2 -557 1 -705 -3 -434 -13 -947 -16 -1124 -6 -184 11 -1224 22 -1426 15z"/>
<path d="M1701 3403 c-18 -36 -19 -71 -20 -729 -2 -618 0 -695 14 -732 22 -54
40 -59 62 -19 17 30 18 85 20 717 2 673 -1 750 -30 788 -15 20 -25 14 -46 -25z"/>
<path d="M184 1865 c-4 -9 -4 -53 -1 -98 8 -116 9 -852 1 -909 -8 -57 8 -84
40 -72 12 4 161 10 333 13 171 3 315 9 319 14 4 4 -2 18 -14 30 -22 21 -31 22
-290 28 -153 3 -278 10 -292 16 -40 17 -56 41 -42 61 6 10 23 36 38 59 24 40
25 44 10 65 -18 25 -22 123 -7 147 7 10 3 24 -10 43 -18 25 -19 35 -10 105 10
83 8 210 -4 280 -7 42 -7 43 29 58 28 12 36 20 31 34 -10 33 33 40 262 42 158
2 224 -1 241 -10 13 -7 30 -11 39 -9 20 4 45 95 29 106 -6 4 -165 8 -354 10
-308 3 -343 2 -348 -13z"/>
<path d="M1835 1871 c-39 -8 -41 -28 -11 -82 14 -24 26 -39 26 -33 0 7 21 14
48 17 46 5 4030 9 4065 4 27 -3 67 67 49 85 -11 11 -399 13 -2080 14 -1137 1
-2080 -1 -2097 -5z"/>
<path d="M6975 1873 c-53 -7 -55 -9 -44 -41 6 -16 21 -39 33 -51 23 -22 25
-22 77 -7 42 12 95 14 238 11 162 -3 185 -6 200 -22 9 -10 15 -25 13 -34 -2
-11 6 -18 25 -22 53 -12 58 -20 45 -79 -6 -31 -9 -113 -7 -197 3 -86 0 -151
-6 -163 -5 -10 -11 -73 -13 -141 l-3 -122 30 -38 31 -38 -31 -31 -31 -30 -263
-10 c-250 -9 -309 -16 -309 -37 0 -19 44 -23 320 -26 157 -2 293 -6 302 -10 9
-4 26 -2 37 5 25 13 28 63 7 114 -8 20 -10 39 -5 48 4 8 10 220 11 471 l3 457
-315 -1 c-173 -1 -328 -4 -345 -6z"/>
<path d="M2135 869 c-271 -6 -315 -12 -315 -44 0 -7 9 -16 19 -20 11 -3 939
-6 2063 -7 1512 0 2051 3 2072 11 l30 12 -21 21 c-19 18 -40 22 -165 30 -170
11 -962 3 -1203 -12 -181 -11 -814 -8 -834 4 -15 9 -1282 13 -1646 5z"/>
<path d="M1722 787 c-30 -36 -33 -79 -33 -402 0 -181 0 -342 0 -357 1 -26 4
-28 46 -28 l45 0 0 333 c0 182 -5 352 -10 377 -6 25 -12 55 -15 68 -6 25 -17
28 -33 9z"/>
</g>
</svg>
