<?xml version="1.0" standalone="no"?>
<!DOCTYPE svg PUBLIC "-//W3C//DTD SVG 20010904//EN"
 "http://www.w3.org/TR/2001/REC-SVG-20010904/DTD/svg10.dtd">
<svg version="1.0" xmlns="http://www.w3.org/2000/svg"
 width="261.000000pt" height="178.000000pt" viewBox="0 0 261.000000 178.000000"
 preserveAspectRatio="xMidYMid meet">
<metadata>
Created by potrace 1.10, written by Peter Selinger 2001-2011
</metadata>
<g transform="translate(0.000000,178.000000) scale(0.050000,-0.050000)"
fill="#a1a9c3" stroke="none">
<path d="M620 3285 l0 -275 -250 6 -249 6 4 -366 5 -366 230 7 c127 4 234 11
239 16 23 22 -58 47 -159 49 -222 5 -296 53 -94 61 l91 3 -53 42 c-70 53 -83
72 -70 105 6 16 -3 27 -22 27 -42 0 -61 48 -37 91 11 18 13 67 5 109 -16 88
10 100 214 100 93 0 111 6 120 40 16 59 39 48 53 -25 7 -36 18 -88 25 -117 11
-52 11 -52 -94 -45 -123 9 -158 27 -51 27 52 0 73 9 73 30 0 46 -153 41 -178
-6 -28 -52 10 -104 76 -104 49 0 55 -6 47 -50 -8 -39 -22 -50 -65 -50 -64 0
-90 -44 -59 -101 26 -50 179 -57 179 -9 0 20 -20 30 -60 30 -33 0 -60 9 -60
20 0 11 45 20 100 20 113 0 110 5 70 -128 -23 -77 -30 -217 -30 -635 l0 -537
-248 0 -249 0 0 -367 -1 -368 234 10 c129 6 238 14 243 19 24 21 -59 43 -215
56 -167 14 -193 43 -49 54 62 4 70 42 13 64 -15 6 -28 33 -28 60 0 31 -14 54
-38 61 -34 11 -38 28 -31 135 10 151 2 144 185 156 142 9 153 13 165 60 l13
50 20 -50 c11 -27 27 -84 34 -125 l14 -75 -116 3 c-85 3 -96 6 -41 12 48 5 75
18 75 36 0 45 -153 39 -178 -7 -26 -50 9 -104 69 -104 39 0 49 -10 49 -50 0
-42 -9 -50 -58 -50 -66 0 -92 -44 -61 -103 17 -31 38 -38 101 -33 96 7 112 44
23 52 -103 10 -76 44 35 44 111 0 115 -7 71 -130 -20 -55 -30 -170 -30 -375
l-1 -295 80 0 80 0 0 1780 0 1780 -80 0 -80 0 0 -275z"/>
<path d="M1025 1780 l0 -1780 89 0 89 0 -6 283 c-4 156 -17 315 -30 352 -58
170 -60 165 63 165 60 0 110 -9 110 -20 0 -11 -32 -20 -72 -20 -101 0 -78 -48
28 -56 74 -6 84 -1 95 44 17 67 -2 92 -70 92 -78 0 -83 95 -6 104 130 16 97
136 -37 136 -106 0 -108 -55 -3 -64 63 -6 56 -9 -39 -17 -129 -10 -122 -26
-71 171 l20 80 19 -55 19 -55 1164 -2 c1727 -3 1633 -6 1633 67 0 68 30 16 59
-101 30 -126 38 -117 -99 -102 -88 9 -95 12 -35 15 107 4 105 63 -3 63 -135 0
-167 -121 -35 -136 82 -10 77 -104 -6 -104 -41 0 -62 -12 -71 -41 -20 -62 25
-102 107 -95 89 8 111 56 25 56 -34 0 -62 9 -62 20 0 11 45 20 100 20 98 0
135 -38 85 -88 -39 -39 -54 -180 -49 -434 l6 -278 77 0 78 0 0 1780 0 1780
-79 0 -78 0 0 -270 0 -270 -1425 0 -1425 0 7 270 7 270 -90 0 -89 0 0 -1780z
m371 1115 c902 -41 2604 -9 2619 48 15 57 38 44 52 -28 7 -36 18 -88 24 -116
12 -50 10 -51 -89 -49 -116 3 -166 30 -55 30 52 0 73 9 73 30 0 50 -153 40
-181 -11 -28 -53 6 -99 73 -99 38 0 48 -11 48 -50 0 -42 -9 -50 -61 -50 -67 0
-98 -46 -65 -98 25 -39 169 -44 181 -7 5 16 -13 25 -52 25 -33 0 -66 9 -73 20
-8 12 30 20 99 20 61 0 111 -5 111 -12 0 -95 -85 -262 -105 -204 -16 48 -2656
36 -2777 -13 -24 -10 -37 8 -56 73 -13 47 -29 102 -35 121 -8 30 5 35 103 35
70 0 108 -8 100 -20 -7 -11 -40 -20 -73 -20 -39 0 -57 -9 -52 -25 12 -37 156
-32 181 7 32 51 2 98 -63 98 -80 0 -87 94 -8 104 68 8 102 62 66 104 -35 43
-181 44 -181 2 0 -21 21 -30 73 -30 107 0 71 -19 -50 -27 -112 -6 -112 -6 -85
79 10 32 25 85 33 118 l14 60 19 -54 c18 -51 25 -53 192 -61z m2644 -1115 l0
-520 -1425 0 -1425 0 5 515 c2 283 4 517 5 520 0 3 639 5 1420 5 l1420 0 0
-520z"/>
<path d="M1623 2654 c-48 -9 -81 -23 -73 -31 19 -19 350 -21 350 -2 0 16 156
8 299 -14 147 -22 0 -48 -317 -55 -252 -6 -328 -14 -365 -40 -25 -17 -58 -32
-73 -32 -15 0 -24 -11 -19 -25 7 -20 263 -25 1187 -27 648 -1 1124 5 1058 12
-104 12 -109 14 -36 17 91 3 122 29 87 71 -12 15 -16 42 -9 59 10 26 -1 33
-51 33 -35 0 -58 -8 -52 -18 6 -11 -10 -13 -39 -5 -27 7 -165 6 -305 -2 -298
-18 -696 -7 -731 20 -68 54 -699 81 -911 39z m523 -209 c-79 -4 -214 -4 -300
0 -86 4 -21 7 144 7 165 0 235 -3 156 -7z"/>
<path d="M4443 1780 l0 -1780 78 0 79 0 -1 305 c0 213 -9 329 -30 385 -40 111
-40 110 71 110 55 0 100 -9 100 -20 0 -11 -28 -20 -62 -20 -40 0 -58 -9 -53
-25 12 -37 156 -32 181 7 32 51 2 98 -63 98 -80 0 -87 94 -8 104 130 16 97
136 -37 136 -108 0 -110 -59 -3 -63 60 -3 53 -6 -35 -15 -60 -7 -113 -11 -116
-9 -3 1 8 58 25 125 45 170 44 1259 0 1344 -45 87 -37 98 71 98 55 0 100 -9
100 -20 0 -11 -28 -20 -62 -20 -40 0 -58 -9 -53 -25 12 -37 156 -32 181 7 32
51 2 98 -63 98 -80 0 -87 94 -8 104 130 16 97 136 -37 136 -108 0 -110 -59 -3
-63 60 -3 52 -6 -35 -15 -131 -14 -133 -11 -88 123 31 95 36 100 54 60 18 -40
35 -45 152 -45 73 0 146 -9 162 -20 17 -11 23 -20 15 -20 -7 0 -6 -22 4 -49
13 -34 12 -51 -5 -57 -19 -7 -18 -18 1 -51 34 -58 31 -78 -12 -92 -27 -9 -35
-25 -28 -61 7 -37 1 -50 -23 -50 -17 0 -32 -9 -32 -19 0 -11 -29 -28 -65 -39
-61 -17 -58 -19 45 -21 200 -3 191 -59 -10 -62 -179 -2 -216 -56 -40 -58 88
-1 194 -7 235 -14 l75 -12 0 374 0 373 -250 -6 -250 -6 0 275 0 275 -79 0 -78
0 0 -1780z"/>
<path d="M4620 1232 c0 -79 22 -92 157 -92 165 -1 178 -9 179 -118 1 -49 12
-95 26 -103 17 -10 11 -25 -19 -51 -24 -20 -43 -52 -43 -70 0 -37 -77 -94
-158 -119 -41 -12 -29 -16 58 -19 61 -1 128 -11 150 -20 48 -21 56 -18 -136
-39 -205 -21 -252 -61 -73 -61 71 0 176 -6 234 -13 l105 -13 0 373 0 373 -240
0 c-194 0 -240 -5 -240 -28z"/>
<path d="M1665 906 c-80 -4 -145 -15 -145 -24 0 -31 121 -41 226 -19 68 15
177 17 314 7 116 -8 230 -16 255 -18 42 -2 43 -4 12 -27 -25 -18 -137 -25
-391 -25 -224 0 -356 -7 -356 -20 0 -11 -7 -18 -15 -16 -25 7 -111 -28 -139
-55 -43 -43 1 -46 777 -49 1004 -4 1629 4 1507 19 l-100 12 85 16 86 17 -51
40 c-41 32 -47 46 -28 68 29 35 17 36 -463 5 -375 -25 -432 -21 -859 53 -68
12 -581 24 -715 16z"/>
<path d="M1480 605 c-170 -6 -260 -22 -260 -46 0 -12 521 -19 1390 -19 1313 0
1443 5 1365 53 -22 14 -2172 24 -2495 12z"/>
</g>
</svg>
