<svg viewBox="0 0 240 239" xmlns="http://www.w3.org/2000/svg"><defs><linearGradient x1=".002%" y1="49.742%" x2="100.001%" y2="49.742%" id="Ticket_-_Print_at_Station__a"><stop stop-color="#435683" stop-opacity="0" offset="0%"/><stop stop-color="#435683" stop-opacity=".065" offset="2.032%"/><stop stop-color="#435683" offset="31.14%"/><stop stop-color="#435683" stop-opacity="0" offset="100%"/></linearGradient><linearGradient x1="49.771%" y1=".038%" x2="49.771%" y2="100.005%" id="Ticket_-_Print_at_Station__b"><stop stop-color="#5E8CC6" offset="24.47%"/><stop stop-color="#547BB2" offset="48.45%"/><stop stop-color="#3A4E80" offset="97.14%"/><stop stop-color="#384B7D" offset="100%"/></linearGradient><linearGradient x1="-.101%" y1="50.121%" x2="100.007%" y2="50.121%" id="Ticket_-_Print_at_Station__c"><stop stop-color="#608BC4" offset="67.92%"/><stop stop-color="#608BC4" offset="90.09%"/></linearGradient><linearGradient x1="-.104%" y1="49.991%" x2="99.988%" y2="49.991%" id="Ticket_-_Print_at_Station__d"><stop stop-color="#425682" offset="21.28%"/><stop stop-color="#608BC4" offset="100%"/></linearGradient><linearGradient x1=".066%" y1="50.032%" x2="100.153%" y2="50.032%" id="Ticket_-_Print_at_Station__e"><stop stop-color="#DCE6F4" offset="12.26%"/><stop stop-color="#9AB8DB" offset="41.17%"/></linearGradient><linearGradient x1=".094%" y1="49.932%" x2="100.045%" y2="49.932%" id="Ticket_-_Print_at_Station__f"><stop stop-color="#DCE6F4" offset="12.26%"/><stop stop-color="#9AB8DB" offset="23.58%"/></linearGradient><linearGradient x1="16.385%" y1="87.93%" x2="83.427%" y2="10.534%" id="Ticket_-_Print_at_Station__g"><stop stop-color="#F4B1B1" offset="17.59%"/><stop stop-color="#F28C8D" offset="71.86%"/></linearGradient><linearGradient x1="-.044%" y1="49.609%" x2="99.856%" y2="49.609%" id="Ticket_-_Print_at_Station__h"><stop stop-color="#5E8CC6" offset="24.47%"/><stop stop-color="#547BB2" offset="48.45%"/><stop stop-color="#3A4E80" offset="97.14%"/><stop stop-color="#384B7D" offset="100%"/></linearGradient><linearGradient x1=".102%" y1="49.876%" x2="100.042%" y2="49.876%" id="Ticket_-_Print_at_Station__i"><stop stop-color="#608BC4" offset="67.92%"/><stop stop-color="#608BC4" offset="90.09%"/></linearGradient><linearGradient x1=".358%" y1="54.382%" x2="100.274%" y2="44.553%" id="Ticket_-_Print_at_Station__j"><stop stop-color="#608BC4" offset="67.92%"/><stop stop-color="#608BC4" offset="90.09%"/></linearGradient><linearGradient x1=".059%" y1="49.664%" x2="99.904%" y2="49.664%" id="Ticket_-_Print_at_Station__k"><stop stop-color="#608BC4" offset="67.92%"/><stop stop-color="#608BC4" offset="90.09%"/></linearGradient><linearGradient x1="-.003%" y1="50.052%" x2="99.972%" y2="50.052%" id="Ticket_-_Print_at_Station__l"><stop stop-color="#608BC4" offset="67.92%"/><stop stop-color="#608BC4" offset="90.09%"/></linearGradient><linearGradient x1="-.05%" y1="49.785%" x2="99.991%" y2="49.785%" id="Ticket_-_Print_at_Station__m"><stop stop-color="#EC6A6C" offset="25.81%"/><stop stop-color="#EC6C6E" offset="55.71%"/><stop stop-color="#EE7374" offset="66.48%"/><stop stop-color="#F07E80" offset="74.14%"/><stop stop-color="#F28C8D" offset="79.35%"/><stop stop-color="#F28C8D" offset="95.7%"/></linearGradient><linearGradient x1="49.836%" y1=".015%" x2="49.836%" y2="100.054%" id="Ticket_-_Print_at_Station__n"><stop stop-color="#242F65" offset="0%"/><stop stop-color="#273368" offset="26.59%"/><stop stop-color="#314072" offset="54.07%"/><stop stop-color="#425482" offset="81.85%"/><stop stop-color="#435683" offset="83.96%"/></linearGradient><linearGradient x1="49.867%" y1=".009%" x2="49.867%" y2="99.916%" id="Ticket_-_Print_at_Station__o"><stop stop-color="#242F65" offset="18.59%"/><stop stop-color="#242F65" offset="36.18%"/></linearGradient><linearGradient x1="1.335%" y1="49.952%" x2="101.91%" y2="49.952%" id="Ticket_-_Print_at_Station__p"><stop stop-color="#F28C8D" offset="4.301%"/><stop stop-color="#F28C8D" offset="20.65%"/><stop stop-color="#F07E80" offset="25.86%"/><stop stop-color="#EE7374" offset="33.52%"/><stop stop-color="#EC6C6E" offset="44.29%"/><stop stop-color="#EC6A6C" offset="74.19%"/></linearGradient><linearGradient x1="1.138%" y1="50.11%" x2="101.08%" y2="50.11%" id="Ticket_-_Print_at_Station__q"><stop stop-color="#F4B0B0" offset="10.11%"/><stop stop-color="#F0AFB1" offset="10.55%"/><stop stop-color="#D1ABB9" offset="14.93%"/><stop stop-color="#B6A7BF" offset="19.79%"/><stop stop-color="#A0A4C5" offset="25.38%"/><stop stop-color="#8FA2C9" offset="31.92%"/><stop stop-color="#84A0CC" offset="40%"/><stop stop-color="#7D9FCE" offset="51.33%"/><stop stop-color="#7B9FCE" offset="82.79%"/></linearGradient><linearGradient x1="-.063%" y1="50.007%" x2="99.848%" y2="50.007%" id="Ticket_-_Print_at_Station__r"><stop stop-color="#F4B0B0" offset="13.12%"/><stop stop-color="#E1ADB5" offset="15.67%"/><stop stop-color="#C1A9BD" offset="20.56%"/><stop stop-color="#A8A5C3" offset="25.91%"/><stop stop-color="#94A2C8" offset="31.81%"/><stop stop-color="#86A0CB" offset="38.53%"/><stop stop-color="#7D9FCD" offset="46.81%"/><stop stop-color="#7B9FCE" offset="61.18%"/><stop stop-color="#608BC4" offset="100%"/></linearGradient><linearGradient x1=".01%" y1="49.993%" x2="100.238%" y2="49.993%" id="Ticket_-_Print_at_Station__s"><stop stop-color="#425682" offset="27.7%"/><stop stop-color="#314272" offset="35.89%"/><stop stop-color="#273568" offset="44.36%"/><stop stop-color="#233165" offset="52.26%"/><stop stop-color="#233165" offset="53.2%"/></linearGradient><linearGradient x1=".011%" y1="50.09%" x2="99.92%" y2="50.09%" id="Ticket_-_Print_at_Station__t"><stop stop-color="#F4B0B0" offset="10.11%"/><stop stop-color="#7B9FCE" offset="82.79%"/><stop stop-color="#799ECD" stop-opacity=".415" offset="92.27%"/><stop stop-color="#7299CB" stop-opacity=".204" offset="95.68%"/><stop stop-color="#6790C6" stop-opacity=".055" offset="98.11%"/><stop stop-color="#608BC4" stop-opacity="0" offset="98.99%"/></linearGradient><linearGradient x1="-.091%" y1="49.821%" x2="99.97%" y2="49.821%" id="Ticket_-_Print_at_Station__u"><stop stop-color="#F28C8D" offset="4.301%"/><stop stop-color="#F28C8D" offset="20.65%"/></linearGradient><linearGradient x1="50.126%" y1="-.177%" x2="50.126%" y2="99.401%" id="Ticket_-_Print_at_Station__v"><stop stop-color="#F28C8D" offset="4.301%"/><stop stop-color="#F28C8D" offset="20.65%"/></linearGradient><linearGradient x1="49.782%" y1=".006%" x2="49.782%" y2="99.888%" id="Ticket_-_Print_at_Station__w"><stop stop-color="#F48F90" offset="51.76%"/><stop stop-color="#F06B6C" offset="80.9%"/></linearGradient><linearGradient x1=".102%" y1="50.064%" x2="99.952%" y2="50.064%" id="Ticket_-_Print_at_Station__x"><stop stop-color="#F48F90" offset="4.301%"/><stop stop-color="#F28485" offset="24.34%"/><stop stop-color="#EF7173" offset="67.97%"/><stop stop-color="#EE6A6C" offset="98.31%"/></linearGradient><linearGradient x1=".218%" y1="49.776%" x2="100.256%" y2="49.776%" id="Ticket_-_Print_at_Station__y"><stop stop-color="#F06B6C" offset="19.1%"/><stop stop-color="#F48F90" offset="48.24%"/></linearGradient></defs><g fill="none" fill-rule="evenodd"><path fill="url(#Ticket_-_Print_at_Station__a)" d="M0 224.543h239.417V238.3H0z"/><path d="M63.03 85.923c.349 1.75 12.931 31.478 12.931 31.478l-3.611 90.004c0 2.565.815 5.014 2.446 6.879l1.282 1.516v16.205l-29.826-3.148V98.165L63.03 85.923z" fill="url(#Ticket_-_Print_at_Station__b)"/><path fill="url(#Ticket_-_Print_at_Station__c)" d="M76.078 232.005l50.213-7.462v-11.192l-50.213 1.4z"/><path d="M134.33 113.321l-23.184-72.283s-.816-7.928-11.301-7.811c-7.69-.233-28.777-.117-37.165 0-2.33 0-4.544.816-6.408 2.215l-4.544 3.264s-2.446 5.13-.116 11.659c2.33 6.529 21.204 67.853 21.204 67.853l-.466 89.304s.116 8.627 7.572 10.26c0 0-1.63 2.564 20.389 0 22.02-2.565 27.611-3.265 27.611-3.265s5.593-2.332 6.408-7.928c.816-5.712 0-93.268 0-93.268zM63.728 46.867c-2.33-6.412-2.563-7.578-2.563-7.578s32.039-.116 39.146.467c4.543 1.049 5.126 7.228 5.126 7.228l-41.709-.117z" fill="url(#Ticket_-_Print_at_Station__d)" fill-rule="nonzero"/><path d="M112.427 45.352l-51.378.116 20.737 70.185.35 93.734c0 3.848 3.146 6.762 6.64 6.296l39.962-3.614c2.912-.233 6.058-4.43 5.825-10.027l-.35-88.838-21.786-67.852z" fill="url(#Ticket_-_Print_at_Station__e)"/><path d="M111.03 41.038s-.816-7.928-11.302-7.811c-7.69-.233-28.777-.117-37.165 0-.466 0-.932.116-1.398.116-3.379 1.516-2.214 6.063-2.214 6.063l2.098 6.062h2.097c-1.864-5.246-2.097-6.179-2.097-6.179s32.038-.116 39.145.467c3.03.7 4.31 3.73 4.777 5.712h7.456l-1.398-4.43z" fill="url(#Ticket_-_Print_at_Station__f)"/><path fill="url(#Ticket_-_Print_at_Station__g)" d="M71.417 52.114h38.214l13.165 43.72-37.631.815z"/><path d="M42.408.466S7.107.233 3.495.466C.583.7.466 3.381.583 4.314c.466 0 32.038-.117 39.145.466 2.68.7 4.777 5.713 4.777 5.713l5.825-.117s-.582-2.098-1.98-5.596C46.485.816 42.408.466 42.408.466z" fill="url(#Ticket_-_Print_at_Station__h)" transform="translate(60.583 34.976)"/><path fill="url(#Ticket_-_Print_at_Station__i)" d="M80.388 110.873l40.544-1.166 10.602 6.062-49.631 2.332z"/><path d="M126.291 123.347c.117 1.866-1.281 3.498-3.029 3.614l-9.087.467c-1.748.116-3.262-1.4-3.379-3.265-.116-1.865 1.282-3.497 3.03-3.614l9.087-.466c1.864-.117 3.378 1.282 3.378 3.264z" fill="url(#Ticket_-_Print_at_Station__j)"/><path fill="url(#Ticket_-_Print_at_Station__k)" d="M81.903 135.822l52.544-1.632v1.632l-52.544 2.215z"/><path fill="url(#Ticket_-_Print_at_Station__l)" d="M85.631 145.265v3.381l12.7-.583v-1.865l9.436-.466v1.748l11.068-.582v-1.866l15.612-.7v-1.515z"/><path d="M151.69 38.007c-3.03.583-5.942 2.215-7.107 5.946-1.166 3.73-6.641 30.312-7.457 31.478-.932 1.166-19.69-5.83-19.69-5.83v-.116c-.232-.933-.931-1.865-1.164-2.915-.233-1.166-.117-2.331-.7-3.38-.465-.933-1.164-1.75-1.514-2.682-.35-.816-.582-1.749-1.048-2.565-1.165.233-.7 1.982-.466 2.681-.7-.7-2.913-2.098-3.961-2.798-.466-.233-2.33-.466-3.729-1.049-.233-.117-.466.117-.466.35.466 1.982 3.612 1.515 4.894 3.614 0 0-.583 0-1.049.466-.233.233-.233.816-.466 1.05-.233.233-.583.116-.816.35-.233.233-.116.582-.233.815-.116.234-.466.234-.582.467-.466.466-.583.7-.35 1.399.117.35.466.816.7 1.166.582.816 2.097 4.313 6.058 7.345 3.378 2.564 29.475 17.487 32.272 7.694l8.504-25.299 6.99-21.685c-.465.117-5.592 2.915-8.62 3.498z" fill="url(#Ticket_-_Print_at_Station__m)"/><path d="M180.699 122.648c4.31-11.192-1.98-25.416-1.98-25.416s-32.855 9.91-34.136 9.91c-1.282 0 17.592 53.28 18.174 54.795.583 1.516 1.98 9.094 3.146 12.475.466 1.399 1.048 9.093 1.631 17.604 0 2.332 0 5.013.233 6.063.233 1.632 0 1.632 0 3.264 0 1.166-.35 3.031.699 3.614.35 6.645.466 12.475.466 13.058 0 1.282-8.97 6.762-13.864 7.578-4.893.816-3.728 3.147-3.728 3.147 8.039 2.099 16.194-.582 18.99-.35 2.796.234 9.67 1.05 10.253-1.282.582-2.331-2.33-9.327-2.913-9.56-.233-.116.35-5.712 1.281-12.241l.233-.35c.466-.583.35-1.516.583-2.215.233-.816.35-1.4.233-2.215-.117-1.283.466-2.915.583-4.43.349-2.099.699-4.08 1.048-5.83 1.631-8.627-3.845-22.5-4.194-27.98-.233-3.964-1.049-28.447 3.262-39.64z" fill="url(#Ticket_-_Print_at_Station__n)"/><path d="M176.621 97.232c-2.796-12.358-27.378 5.48-31.456 8.394l-1.048-.583c.349.35.466.7.466 1.166 0 .117 0 .35-.117.7-.35 1.515-1.398 3.38-1.515 4.43-.116 1.166.466 2.099.233 3.264-.233 1.166-.466.7-.582 1.866-.233 2.331 1.398 3.148.466 7.578-1.748 17.138-3.495 42.67-2.796 45.585.35 1.282-.583 3.497 2.563 6.295 1.282 3.614 6.408 20.286 6.64 21.685.234 1.166.35 2.099.816 3.148.466.933 1.398 1.982 1.748 2.915 1.514 3.847.699 6.179 2.796 5.363.35.116-.466 0 0 0 2.214 5.48 3.612 9.326 3.262 10.026-1.281 2.215-10.485 6.412-12.815 6.762-1.399.116-3.146 1.515-4.195 2.681-.466.467-.116 1.283.466 1.283 2.33 0 7.224.116 14.33 0l10.486-.233 1.514.116c1.748.117 3.146-1.515 2.913-3.264l-.466-3.381c-.116-.816-.466-1.632-.815-2.332-.583-.933-2.797-8.51-4.311-14.223.116-.233.233-.467.116-.816-.116-1.05-.699-1.75-.699-3.032 0-1.165-.233-1.865-.582-2.798-1.282-18.304-6.64-22.617-9.088-29.03-.699-.816 13.748-40.221 13.865-41.037 2.796-5.014 13.281-8.395 7.805-32.528z" fill="url(#Ticket_-_Print_at_Station__o)"/><path d="M150.64 8.278c.117.35.816.233 1.05.466.465.35.815.933.931 1.399.233.466 0 .933.233 1.399.233.35.466.583.583 1.05.233.466.233 1.048.233 1.515.233 1.399.466 2.798.932 4.197.466 1.516 1.048 3.031 1.048 4.547 0 2.098 1.981 11.542.583 13.29-.699.933.466-6.528-8.039-3.847-1.63 0-1.864-1.282-1.864-1.865 0-1.166-.116-1.05-.35-1.516-.116-.233-.465-.233-.582-.35a.744.744 0 0 1 0-.7c0-.232.233-.465.233-.699 0-.233-.233-.35-.466-.583-.466-.466-.116-.816.117-1.282.233-.466.466-.933.116-1.399-.466-.7-1.98-.816-1.515-1.865.35-.816 1.515-1.633 1.282-2.682-.233-.116-.699-.233-.815-.466.699-.35 1.165-1.166 1.048-1.982-.116-.583-.35-1.166-.466-1.749-.116-.7-.233-1.516-.233-2.215 0-.933.233-1.865.583-2.681.35-.817.699-1.982 1.398-2.449.233 0 2.912-1.749 3.96.467z" fill="url(#Ticket_-_Print_at_Station__p)"/><path d="M173.709 38.123c.466.234 5.941 4.547 7.573 8.045 1.63 3.497 1.048 7.578 1.864 10.842.815 3.381 4.427 15.856 4.543 18.188.117 2.331 1.282 13.174.466 13.99-.815.816-11.534 2.681-11.534 2.681l-3.029-9.676s4.893-1.4 4.544-2.565c-.466-1.283-2.68-7.578-2.563-8.045.116-.466 7.69-13.64 5.592-20.169l-2.214-6.529-5.242-6.762z" fill="url(#Ticket_-_Print_at_Station__q)"/><path d="M157.282 36.258l7.456-2.565 12.466 6.529s5.243 5.363 5.126 8.627c-.116 3.265 1.398 9.094-1.864 14.457-3.146 5.363-7.223 17.254-6.64 19.003.582 1.866.349.933.698 2.332.466 1.399 3.03 9.91 3.728 10.726.7.816.816 1.749.466 1.865-.699.233-18.407 12.825-34.135 8.86 0 0-2.214-5.829-1.399-7.111.816-1.282.816-2.565.816-2.565-.932-1.632-1.398-8.627-.583-10.726.816-2.098 10.02-30.895 10.02-30.895s5.825-12.824-2.097-16.788l5.942-1.749z" fill="url(#Ticket_-_Print_at_Station__r)"/><path d="M146.097 8.278s-.233-2.099 5.592-4.664c5.826-2.565 13.748-4.78 18.175 1.4 4.427 6.178 3.03 18.536 4.194 24.482 1.282 5.946.932 7.928 5.243 13.29 3.845 4.78-1.98 7.929-4.893 9.094-.816.35-1.515-.233-1.98-.932-5.244-6.995-5.244-6.995-7.923-16.555l-12.466 3.497c-2.913.7 3.145-5.829 1.98-7.928-1.63-2.798-2.796-7.578-2.68-9.21.117-1.632.933 15.156-1.28 16.206 0 0 .815-2.915-.234-6.996-.932-3.963-6.175-13.523-3.728-21.684" fill="url(#Ticket_-_Print_at_Station__s)"/><path d="M152.388 37.774c-.233.116-.466.116-.699.116-3.029.583-5.941 2.215-7.106 5.946-1.166 3.73-6.99 29.263-7.923 30.429-.582.7-7.69-.7-13.281-2.682-1.165 1.633-2.447 4.43-1.98 7.812 8.154 5.363 21.785 9.443 23.883 3.964 0 0 4.194-14.224 5.825-19.587 4.893 5.247 14.563-22.5 1.281-25.998z" fill="url(#Ticket_-_Print_at_Station__t)"/><path d="M168.699 218.598c-.932-2.798-2.563-8.045-3.612-12.242-2.68.933-7.223 1.749-10.252 2.682 1.98 5.712 3.612 9.443 3.262 10.026 5.01 3.38 5.01 3.38 6.058 1.865 1.049-1.515 4.544-2.331 4.544-2.331z" fill="url(#Ticket_-_Print_at_Station__u)"/><path d="M168.466 205.074c.233 6.295.466 12.59.466 13.057 2.796 1.05 4.427 3.031 5.592 1.749s3.262-2.099 3.262-2.099c-.233-.116.583-6.528 1.515-12.59h-10.835v-.117z" fill="url(#Ticket_-_Print_at_Station__v)"/><path d="M38.913 202.276s1.747-3.498 4.776-9.094c3.03-5.596 10.37-18.07 17.71-14.923 7.339 3.148 4.776 9.677 3.378 15.04-1.398 5.479-2.447 9.793-2.447 9.793h-4.427s5.126-10.61 5.592-13.99c.583-3.382.466-9.91-5.825-8.628-6.175 1.283-12.816 15.39-13.98 21.918" fill="#EF4849"/><path d="M27.262 24.95c1.165.349 33.088 0 32.971 0 0 0 9.553 13.173 11.884 16.321 2.213 3.148 3.145 16.555-5.942 20.986l-39.961-.117 1.048-37.19z" fill="url(#Ticket_-_Print_at_Station__w)" transform="translate(18.64 176.044)"/><path d="M27.262 24.95s13.864 36.374-1.165 37.073H6.058S-11.65 50.598 17.592 24.95h9.67z" fill="url(#Ticket_-_Print_at_Station__x)" transform="translate(18.64 176.044)"/><path d="M30.874 24.95H17.709s-4.544 2.214-4.078 6.295c.466 4.08 1.864 12.708 1.864 12.708l4.194.233s6.292-24.6 16.544-11.775c0-.117-2.447-7.462-5.36-7.462z" fill="url(#Ticket_-_Print_at_Station__y)" transform="translate(18.64 176.044)"/><path d="M57.087 176.86s-5.126-.233-4.543 6.062c.466 6.296 1.747 20.053 1.747 20.053s-3.145 1.166.583 6.645c2.68 3.848 3.728 5.48 3.728 5.48s1.165-6.062 1.515-7.578c.699-3.148-2.447-4.547-2.447-4.547s-1.98-9.56-2.563-16.555c-.466-5.013-.233-8.278 2.446-8.394 4.544-.933 9.32 5.596 12.117 12.241 2.796 6.53 3.612 12.708 3.612 12.708s-2.564.7-1.049 3.498c1.631 2.914 6.058 8.627 6.058 8.627s.932-6.179 1.049-7.928c.35-3.264-3.379-4.78-3.379-4.78s-6.408-27.397-18.874-25.532z" fill="#F06B6C"/></g></svg>