<svg width="36" height="36" xmlns="http://www.w3.org/2000/svg"><g fill="none" fill-rule="evenodd"><circle cx="18" cy="18" r="18" fill="#9EBCE0" fill-rule="nonzero"/><path d="M12.224 26.371l1.23 1.23a2.283 2.283 0 003.218 0l7.757-7.758-8.895-8.895-7.757 7.757a2.282 2.282 0 000 3.218l1.23 1.23a2.275 2.275 0 013.217 3.218m15.423-12.963l-1.23-1.23A2.275 2.275 0 1123.2 8.96l-1.23-1.23a2.282 2.282 0 00-3.218 0l-2.413 2.414 8.895 8.895 2.413-2.413a2.282 2.282 0 000-3.218" fill="#FFF"/><path d="M18.651 16.726a1.061 1.061 0 11-1.5 1.501 1.061 1.061 0 011.5-1.501m-3.101 4.239a1.062 1.062 0 11-2.123 0 1.062 1.062 0 012.123 0" fill="#9EBCE0"/></g></svg>