<svg viewBox="0 0 240 421" xmlns="http://www.w3.org/2000/svg"><defs><linearGradient x1="22.144%" y1="33.509%" x2="118.223%" y2="85.729%" id="Ticket_-_Mobile__a"><stop stop-color="#A1A7C2" offset="33.5%"/><stop stop-color="#A1A7C2" offset="57.36%"/></linearGradient><linearGradient x1="50.338%" y1=".095%" x2="49.573%" y2="99.875%" id="Ticket_-_Mobile__b"><stop stop-color="#F6B2B3" offset="0%"/><stop stop-color="#EDB0B4" offset="36.17%"/><stop stop-color="#8D99C1" offset="54.95%"/><stop stop-color="#5E8EC8" offset="65.17%"/></linearGradient><linearGradient x1="48.491%" y1="-.254%" x2="51.303%" y2="100.323%" id="Ticket_-_Mobile__c"><stop stop-color="#242F65" offset="0%"/><stop stop-color="#273368" offset="32.94%"/><stop stop-color="#303E71" offset="63.68%"/><stop stop-color="#3E5181" offset="93.47%"/><stop stop-color="#425685" offset="100%"/></linearGradient><linearGradient x1="49.999%" y1=".017%" x2="49.999%" y2="100.001%" id="Ticket_-_Mobile__d"><stop stop-color="#7DA4D2" offset="30.46%"/><stop stop-color="#5E8EC8" offset="100%"/></linearGradient></defs><g fill="none" fill-rule="evenodd"><path d="M200.533 4.53h17.6c10.934 0 20 9.326 19.734 20.783v366.643c.266 10.925-12.534 27.712-32 27.712H38.133c-7.466 0-14.4-4.264-17.866-11.191L6.667 378.1 200.533 4.53z" fill="url(#Ticket_-_Mobile__a)" opacity=".65"/><path d="M228.267 382.63c0 14.922-12.267 26.912-27.2 26.912l-172-.799c-14.934 0-27.2-12.257-26.934-27.178l1.6-353.32c0-14.922 12.267-26.913 27.2-26.913l172 .8c14.934 0 27.2 12.257 26.934 27.178l-1.6 353.32z" fill="url(#Ticket_-_Mobile__b)"/><path d="M224.267 378.9c0 14.655-11.734 26.38-26.134 26.38l-165.6-.8c-14.4 0-26.133-11.99-26.133-26.646L8 30.376C8 15.72 19.733 3.996 34.133 3.996l165.6.8c14.4 0 26.134 11.99 26.134 26.646l-1.6 347.458z" fill="url(#Ticket_-_Mobile__c)"/><path d="M137.867 17.586c0 .8-.8 1.599-1.867 1.599l-32-.267c-1.067 0-1.867-.799-1.867-1.598 0-.8.8-1.6 1.867-1.6l32 .267c1.333.267 1.867.8 1.867 1.6z" fill="#5E8EC8"/><path fill="url(#Ticket_-_Mobile__d)" d="M14.4 38.636h203.2v330.938H14.4z"/><path d="M187.2 144.419c0 4.53 3.467 8.26 7.733 8.26v154.278c0 9.592-7.733 17.32-17.333 17.32H54.133c-9.6 0-17.333-7.728-17.333-17.32V152.679c4-.266 7.467-3.73 7.467-8.26 0-4.53-3.2-7.994-7.467-8.26V96.457c0-9.592 7.733-17.32 17.333-17.32H177.6c9.6 0 17.333 7.728 17.333 17.32v39.702c-4.266 0-7.733 3.73-7.733 8.26zm-134.667-3.73c-2.133 0-3.733 1.598-3.733 3.73 0 2.132 1.6 3.73 3.733 3.73 2.134 0 3.734-1.598 3.734-3.73-.267-2.132-1.867-3.73-3.734-3.73zm15.734 0c-2.134 0-3.734 1.598-3.734 3.73 0 2.132 1.6 3.73 3.734 3.73 2.133 0 3.733-1.598 3.733-3.73-.267-2.132-1.867-3.73-3.733-3.73zm15.466 0c-2.133 0-3.733 1.598-3.733 3.73 0 2.132 1.6 3.73 3.733 3.73 2.134 0 3.734-1.598 3.734-3.73 0-2.132-1.6-3.73-3.734-3.73zm15.734 0c-2.134 0-3.734 1.598-3.734 3.73 0 2.132 1.6 3.73 3.734 3.73 2.133 0 3.733-1.598 3.733-3.73 0-2.132-1.6-3.73-3.733-3.73zm15.733 0c-2.133 0-3.733 1.598-3.733 3.73 0 2.132 1.6 3.73 3.733 3.73s3.733-1.598 3.733-3.73c0-2.132-1.6-3.73-3.733-3.73zm15.733 0c-2.133 0-3.733 1.598-3.733 3.73 0 2.132 1.6 3.73 3.733 3.73 2.134 0 3.734-1.598 3.734-3.73 0-2.132-1.6-3.73-3.734-3.73zm16.8 0c-2.133 0-3.733 1.598-3.733 3.73 0 2.132 1.6 3.73 3.733 3.73 2.134 0 3.734-1.598 3.734-3.73 0-2.132-1.6-3.73-3.734-3.73zm15.734 0c-2.134 0-3.734 1.598-3.734 3.73 0 2.132 1.6 3.73 3.734 3.73 2.133 0 3.733-1.598 3.733-3.73 0-2.132-1.6-3.73-3.733-3.73zm15.733 0c-2.133 0-3.733 1.598-3.733 3.73 0 2.132 1.6 3.73 3.733 3.73s3.733-1.598 3.733-3.73c0-2.132-1.866-3.73-3.733-3.73z" fill="#FFF" fill-rule="nonzero"/><g fill="#242F65"><path d="M102.4 197.71v25.313H77.067V197.71H102.4zm8.267-8.26H68.8v41.834h41.867V189.45z" fill-rule="nonzero"/><path d="M95.733 204.372h-12v11.99h12z"/><path d="M154.933 197.71v25.313H129.6V197.71h25.333zm8.267-8.26h-41.867v41.834H163.2V189.45z" fill-rule="nonzero"/><path d="M148.267 204.372h-12v11.99h12zm-14.934 37.303h-12v11.99h12z"/><path d="M150.4 261.926v8.26h-8.267v-8.26h8.267zm8-8.26h-24.8v24.78h24.8v-24.78zm-56-3.731v25.314H77.067v-25.314H102.4zm8.267-8.26H68.8v41.834h41.867v-41.834z" fill-rule="nonzero"/><path d="M95.733 256.863h-12v11.724h12zm67.467-15.188h-8.267v33.84h-33.6v8.26H163.2z"/></g><path fill="#EF4849" d="M55.466 96.457h120.8v11.458h-120.8z"/><path fill="#9CBADC" d="M55.466 114.576h60.267v11.458H55.466z"/></g></svg>