<svg viewBox="0 0 240 242" xmlns="http://www.w3.org/2000/svg"><defs><linearGradient x1=".019%" y1="50.011%" x2="99.934%" y2="50.011%" id="Tickets_-_Wallet__a"><stop stop-color="#5E8EC8" offset="0%"/><stop stop-color="#425685" offset="51.78%"/></linearGradient><linearGradient x1=".019%" y1="49.99%" x2="99.98%" y2="49.99%" id="Tickets_-_Wallet__b"><stop stop-color="#9CBADC" offset="0%"/><stop stop-color="#7DA4D2" offset="14.72%"/><stop stop-color="#5E8EC8" offset="100%"/></linearGradient><linearGradient x1="-5.372%" y1="50.038%" x2="4317.803%" y2="50.038%" id="Tickets_-_Wallet__c"><stop stop-color="#242F65" offset="0%"/><stop stop-color="#273368" offset="32.94%"/><stop stop-color="#303E71" offset="63.68%"/><stop stop-color="#3E5181" offset="93.47%"/><stop stop-color="#425685" offset="100%"/></linearGradient><linearGradient x1="-3.491%" y1="49.972%" x2="99.984%" y2="49.972%" id="Tickets_-_Wallet__d"><stop stop-color="#242F65" offset="0%"/><stop stop-color="#273368" offset="32.94%"/><stop stop-color="#303E71" offset="63.68%"/><stop stop-color="#3E5181" offset="93.47%"/><stop stop-color="#425685" offset="100%"/></linearGradient><linearGradient x1="1.188%" y1="49.216%" x2="5766.988%" y2="49.216%" id="Tickets_-_Wallet__e"><stop stop-color="#242F65" offset="0%"/><stop stop-color="#273368" offset="32.94%"/><stop stop-color="#303E71" offset="63.68%"/><stop stop-color="#3E5181" offset="93.47%"/><stop stop-color="#425685" offset="100%"/></linearGradient><linearGradient x1=".151%" y1="50.108%" x2="99.92%" y2="50.108%" id="Tickets_-_Wallet__f"><stop stop-color="#242F65" offset="0%"/><stop stop-color="#273368" offset="32.94%"/><stop stop-color="#303E71" offset="63.68%"/><stop stop-color="#3E5181" offset="93.47%"/><stop stop-color="#425685" offset="100%"/></linearGradient><linearGradient x1="-.277%" y1="50.037%" x2="99.825%" y2="50.037%" id="Tickets_-_Wallet__g"><stop stop-color="#BFD2E8" offset="22.84%"/><stop stop-color="#9CBADC" offset="100%"/></linearGradient></defs><g fill="none" fill-rule="evenodd"><path d="M217.412 227.857H5.02L1.412 85.643C1.725 84.229.314 79.2 12.549 79.2l207.843-1.257c7.216 0 13.02 5.814 13.02 13.043v122.1c-.157 7.071-8.785 14.771-16 14.771z" fill="url(#Tickets_-_Wallet__a)"/><path d="M127.53 49.029c0 3.3 2.51 6.128 5.803 6.128v114.714c0 7.072-5.804 12.886-12.862 12.886H28.863c-7.06 0-12.863-5.814-12.863-12.886V55.157c3.137-.157 5.49-2.828 5.49-6.128 0-3.3-2.51-5.972-5.49-6.129V13.357C16 6.286 21.804.471 28.863.471h91.608c7.058 0 12.862 5.815 12.862 12.886V42.9c-3.137.157-5.804 2.829-5.804 6.129zM27.45 46.357c-1.569 0-2.667 1.257-2.667 2.829 0 1.571 1.255 2.828 2.667 2.828 1.569 0 2.667-1.257 2.667-2.828.157-1.572-1.098-2.829-2.667-2.829zm11.765 0c-1.569 0-2.667 1.257-2.667 2.829 0 1.571 1.255 2.828 2.667 2.828 1.568 0 2.666-1.257 2.666-2.828 0-1.572-1.098-2.829-2.666-2.829zm11.608 0c-1.57 0-2.667 1.257-2.667 2.829 0 1.571 1.255 2.828 2.667 2.828 1.568 0 2.666-1.257 2.666-2.828.157-1.572-1.098-2.829-2.666-2.829zm11.764 0c-1.568 0-2.666 1.257-2.666 2.829 0 1.571 1.254 2.828 2.666 2.828 1.569 0 2.667-1.257 2.667-2.828 0-1.572-1.255-2.829-2.667-2.829zm11.608 0c-1.569 0-2.667 1.257-2.667 2.829 0 1.571 1.255 2.828 2.667 2.828 1.569 0 2.667-1.257 2.667-2.828.157-1.572-1.098-2.829-2.667-2.829zm11.765 0c-1.569 0-2.667 1.257-2.667 2.829 0 1.571 1.255 2.828 2.667 2.828 1.568 0 2.666-1.257 2.666-2.828 0-1.572-1.254-2.829-2.666-2.829zm12.392 0c-1.569 0-2.667 1.257-2.667 2.829 0 1.571 1.255 2.828 2.667 2.828 1.569 0 2.667-1.257 2.667-2.828 0-1.572-1.255-2.829-2.667-2.829zm11.608 0c-1.569 0-2.667 1.257-2.667 2.829 0 1.571 1.255 2.828 2.667 2.828s2.666-1.257 2.666-2.828c0-1.572-1.098-2.829-2.666-2.829zm11.608 0c-1.569 0-2.667 1.257-2.667 2.829 0 1.571 1.255 2.828 2.667 2.828 1.568 0 2.666-1.257 2.666-2.828.157-1.572-1.098-2.829-2.666-2.829z" fill="#DDE9F6" fill-rule="nonzero"/><g fill="#242F65"><path d="M101.176 91.3v17.286H83.922V91.3h17.254"/><path d="M96.627 95.857h-8.156v8.172h8.156z"/></g><path d="M120.47.471H28.864C21.803.471 16 6.286 16 13.357V42.9c2.98.157 5.333 2.671 5.49 5.814h3.137c.157-1.414 1.255-2.514 2.667-2.514s2.51 1.1 2.667 2.514h6.274c.157-1.414 1.255-2.514 2.667-2.514s2.51 1.1 2.667 2.514h6.274C48 47.3 49.098 46.2 50.51 46.2s2.51 1.1 2.666 2.514h6.275c.157-1.414 1.255-2.514 2.667-2.514 1.411 0 2.51 1.1 2.666 2.514h6.275c.157-1.414 1.255-2.514 2.666-2.514 1.412 0 2.51 1.1 2.667 2.514h6.275c.157-1.414 1.255-2.514 2.666-2.514 1.412 0 2.51 1.1 2.667 2.514h7.059c.157-1.414 1.255-2.514 2.666-2.514 1.412 0 2.51 1.1 2.667 2.514h6.275c.157-1.414 1.255-2.514 2.666-2.514 1.412 0 2.51 1.1 2.667 2.514h6.275c.156-1.414 1.254-2.514 2.666-2.514s2.51 1.1 2.667 2.514h3.294c.157-3.3 2.667-5.814 5.647-5.814V13.357c.784-7.071-5.02-12.886-12.078-12.886z" fill="#F48F90"/><path d="M165.02 71.657c0 3.3 2.51 6.129 5.804 6.129V192.5c0 7.071-5.804 12.886-12.863 12.886H66.353c-7.059 0-12.863-5.815-12.863-12.886V77.786c3.137-.157 5.49-2.829 5.49-6.129 0-3.3-2.51-5.971-5.49-6.128V35.986c0-7.072 5.804-12.886 12.863-12.886h91.608c7.059 0 12.863 5.814 12.863 12.886v29.543c-3.295 0-5.804 2.671-5.804 6.128zM64.94 68.83c-1.568 0-2.666 1.257-2.666 2.828 0 1.572 1.254 2.829 2.666 2.829 1.569 0 2.667-1.257 2.667-2.829 0-1.571-1.098-2.828-2.667-2.828zm11.608 0c-1.569 0-2.667 1.257-2.667 2.828 0 1.572 1.255 2.829 2.667 2.829 1.569 0 2.667-1.257 2.667-2.829.157-1.571-1.098-2.828-2.667-2.828zm11.765 0c-1.569 0-2.667 1.257-2.667 2.828 0 1.572 1.255 2.829 2.667 2.829 1.568 0 2.666-1.257 2.666-2.829 0-1.571-1.255-2.828-2.666-2.828zm11.608 0c-1.57 0-2.667 1.257-2.667 2.828 0 1.572 1.255 2.829 2.667 2.829 1.411 0 2.666-1.257 2.666-2.829.157-1.571-1.098-2.828-2.666-2.828zm11.764 0c-1.568 0-2.666 1.257-2.666 2.828 0 1.572 1.255 2.829 2.666 2.829 1.412 0 2.667-1.257 2.667-2.829 0-1.571-1.255-2.828-2.667-2.828zm11.608 0c-1.569 0-2.667 1.257-2.667 2.828 0 1.572 1.255 2.829 2.667 2.829s2.667-1.257 2.667-2.829c0-1.571-1.098-2.828-2.667-2.828zm12.392 0c-1.568 0-2.666 1.257-2.666 2.828 0 1.572 1.255 2.829 2.666 2.829 1.412 0 2.667-1.257 2.667-2.829 0-1.571-1.098-2.828-2.667-2.828zm11.608 0c-1.569 0-2.667 1.257-2.667 2.828 0 1.572 1.255 2.829 2.667 2.829 1.569 0 2.667-1.257 2.667-2.829.157-1.571-1.098-2.828-2.667-2.828zm11.765 0c-1.569 0-2.667 1.257-2.667 2.828 0 1.572 1.255 2.829 2.667 2.829 1.568 0 2.666-1.257 2.666-2.829 0-1.571-1.254-2.828-2.666-2.828z" fill="#FFF" fill-rule="nonzero"/><path d="M157.96 22.943H66.354c-7.059 0-12.863 5.814-12.863 12.886V65.37c2.98.158 5.334 2.672 5.49 5.815h3.138c.157-1.415 1.255-2.515 2.666-2.515 1.412 0 2.51 1.1 2.667 2.515h6.274c.157-1.415 1.255-2.515 2.667-2.515s2.51 1.1 2.667 2.515h6.274C85.49 69.77 86.588 68.67 88 68.67s2.51 1.1 2.667 2.515h6.274c.157-1.415 1.255-2.515 2.667-2.515s2.51 1.1 2.667 2.515h6.274c.157-1.415 1.255-2.515 2.667-2.515 1.411 0 2.51 1.1 2.666 2.515h6.275c.157-1.415 1.255-2.515 2.667-2.515 1.411 0 2.51 1.1 2.666 2.515h7.059c.157-1.415 1.255-2.515 2.667-2.515 1.411 0 2.51 1.1 2.666 2.515h6.275c.157-1.415 1.255-2.515 2.667-2.515 1.411 0 2.51 1.1 2.666 2.515h6.275c.157-1.415 1.255-2.515 2.666-2.515 1.412 0 2.51 1.1 2.667 2.515h3.294c.157-3.3 2.667-5.815 5.647-5.815V35.986c.628-7.229-5.02-13.043-12.078-13.043z" fill="#F06B6C"/><path d="M206.431 96.957c0 3.3 2.51 6.129 5.804 6.129V217.8c0 7.071-5.804 12.886-12.862 12.886h-91.608c-7.06 0-12.863-5.815-12.863-12.886V103.086c3.137-.157 5.49-2.829 5.49-6.129 0-3.3-2.51-5.971-5.49-6.128V61.286c0-7.072 5.804-12.886 12.863-12.886h91.608c7.058 0 12.862 5.814 12.862 12.886v29.543c-3.294.157-5.804 2.828-5.804 6.128zm-100.078-2.671c-1.569 0-2.667 1.257-2.667 2.828 0 1.572 1.255 2.829 2.667 2.829 1.569 0 2.667-1.257 2.667-2.829 0-1.571-1.255-2.828-2.667-2.828zm11.608 0c-1.569 0-2.667 1.257-2.667 2.828 0 1.572 1.255 2.829 2.667 2.829s2.666-1.257 2.666-2.829c0-1.571-1.098-2.828-2.666-2.828zm11.608 0c-1.569 0-2.667 1.257-2.667 2.828 0 1.572 1.255 2.829 2.667 2.829 1.568 0 2.666-1.257 2.666-2.829.157-1.571-1.098-2.828-2.666-2.828zm11.764 0c-1.568 0-2.666 1.257-2.666 2.828 0 1.572 1.255 2.829 2.666 2.829 1.569 0 2.667-1.257 2.667-2.829 0-1.571-1.098-2.828-2.667-2.828zm11.608 0c-1.568 0-2.666 1.257-2.666 2.828 0 1.572 1.254 2.829 2.666 2.829s2.667-1.257 2.667-2.829c.157-1.571-1.098-2.828-2.667-2.828zm11.765 0c-1.569 0-2.667 1.257-2.667 2.828 0 1.572 1.255 2.829 2.667 2.829 1.569 0 2.667-1.257 2.667-2.829 0-1.571-1.255-2.828-2.667-2.828zm12.392 0c-1.569 0-2.667 1.257-2.667 2.828 0 1.572 1.255 2.829 2.667 2.829 1.569 0 2.667-1.257 2.667-2.829 0-1.571-1.255-2.828-2.667-2.828zm11.608 0c-1.569 0-2.667 1.257-2.667 2.828 0 1.572 1.255 2.829 2.667 2.829s2.667-1.257 2.667-2.829c0-1.571-1.098-2.828-2.667-2.828zm11.765 0c-1.569 0-2.667 1.257-2.667 2.828 0 1.572 1.255 2.829 2.667 2.829 1.568 0 2.666-1.257 2.666-2.829 0-1.571-1.255-2.828-2.666-2.828z" fill="#FFF" fill-rule="nonzero"/><path d="M199.373 48.4h-91.608c-7.06 0-12.863 5.814-12.863 12.886v29.543c2.98.157 5.333 2.671 5.49 5.814h3.137c.157-1.414 1.255-2.514 2.667-2.514s2.51 1.1 2.667 2.514h6.274c.157-1.414 1.255-2.514 2.667-2.514s2.51 1.1 2.667 2.514h6.274c.157-1.414 1.255-2.514 2.667-2.514s2.51 1.1 2.666 2.514h6.275c.157-1.414 1.255-2.514 2.667-2.514 1.411 0 2.51 1.1 2.666 2.514h6.275c.157-1.414 1.255-2.514 2.666-2.514 1.412 0 2.51 1.1 2.667 2.514h6.275c.156-1.414 1.255-2.514 2.666-2.514 1.412 0 2.51 1.1 2.667 2.514h7.059c.157-1.414 1.255-2.514 2.666-2.514 1.412 0 2.51 1.1 2.667 2.514h6.275c.156-1.414 1.255-2.514 2.666-2.514 1.412 0 2.51 1.1 2.667 2.514h6.274c.157-1.414 1.255-2.514 2.667-2.514s2.51 1.1 2.667 2.514h3.294c.157-3.3 2.667-5.814 5.647-5.814V61.286c.627-7.072-5.02-12.886-12.078-12.886z" fill="#EF4849"/><path d="M213.804 241.529H7.529c-3.294 0-6.117-2.672-6.117-6.129V85.643c2.666 3.457 6.745 3.143 11.137 3.143h201.255c7.216 0 13.02 5.814 13.02 13.043v126.814c0 7.071-5.804 12.886-13.02 12.886z" fill="url(#Tickets_-_Wallet__b)"/><g fill="#425685"><path d="M83.137 128.386V126.5c0-2.043-1.725-3.771-3.764-3.771H64.157c-2.04 0-3.765 1.728-3.765 3.771v1.886c-1.098 0-1.882.785-1.882 1.885v3.458c0 1.1.784 2.042 1.882 2.2v17.285h1.569c1.255 0 2.196-.943 2.196-2.2v-1.571h15.216v1.571c0 1.257.94 2.2 2.196 2.2h1.568V135.93a2.203 2.203 0 0 0 1.883-2.2v-3.458c0-1.1-.942-1.885-1.883-1.885zM64 147.4a1.742 1.742 0 0 1-1.725-1.729c0-.942.784-1.728 1.725-1.728.941 0 1.725.786 1.725 1.728 0 .943-.784 1.729-1.725 1.729zm15.216 0a1.742 1.742 0 0 1-1.726-1.729c0-.942.785-1.728 1.726-1.728.94 0 1.725.786 1.725 1.728.157.943-.784 1.729-1.725 1.729zm1.882-9.429c0 1.1-.784 1.886-1.882 1.886H64c-1.098 0-1.882-.786-1.882-1.886v-7.7c0-1.1.784-1.885 1.882-1.885h15.216c1.098 0 1.882.785 1.882 1.885v7.7zm42.51 3.143c0 2.2-.314 4.243-.784 6.286l2.98 2.671c.47.315.627.943.784 1.572v1.414l-5.804-1.414-5.804 1.414v-1.414c0-.629.314-1.1.785-1.572l2.98-2.671c-.47-2.043-.784-4.086-.784-6.286l-12.55 3.143v-1.728c0-.786.158-1.415.785-1.886l11.922-8.329v-7.857l1.255-1.886c.313-.471.94-.785 1.725-.785.784 0 1.255.314 1.726.785l1.254 1.886v7.857L136 140.643c.627.471.784 1.1.784 1.886v1.728l-13.176-3.143zm-2.98-17.443c-.628 0-1.099.315-1.099.786l-.313 1.1h2.823l-.157-1.1c-.157-.471-.627-.786-1.255-.786z" fill-rule="nonzero"/><path d="M77.804 200.829l-.784-.786-.785.786c-1.255 1.414-3.137 2.357-5.176 2.357-1.883 0-3.765-.786-5.177-2.357l-.784-.786-.784.786c-1.255 1.414-3.138 2.357-5.177 2.357v1.885c2.196 0 4.236-.785 5.804-2.2 1.569 1.415 3.765 2.2 5.804 2.2 2.196 0 4.235-.785 5.804-2.2 1.569 1.415 3.765 2.2 5.804 2.2v-1.885c-1.412-.157-3.137-.943-4.55-2.357z"/><path d="M84.235 188.886l-1.725-.472-2.667-10.685c-.314-1.1-1.255-1.886-2.353-1.886h-3.765l-.784-1.1c-.314-.472-.941-.786-1.725-.786-.785 0-1.255.314-1.726.786l-.784 1.1H64.94c-1.098 0-2.196.786-2.353 1.886l-2.666 10.685-1.726.472c-1.098.314-1.569 1.257-1.255 2.357l3.608 9.586c1.569-.315 2.98-.943 3.922-2.2l.784-.786.784.786c1.255 1.414 3.137 2.357 5.177 2.357 1.882 0 3.764-.786 5.176-2.357l.784-.786.785.786c1.098 1.1 2.51 1.885 3.921 2.2l3.608-9.586c.314-1.1-.157-2.2-1.255-2.357zm-16.784 4.243c-.941 0-1.882-.786-1.882-1.886 0-1.1.784-1.886 1.882-1.886.941 0 1.882.786 1.882 1.886 0 1.1-.94 1.886-1.882 1.886zm7.686 0c-.94 0-1.882-.786-1.882-1.886 0-1.1.784-1.886 1.882-1.886.941 0 1.883.786 1.883 1.886 0 1.1-.785 1.886-1.883 1.886zm3.922-5.658l-7.843-1.885-7.843 1.885v-4.085c0-.943.784-1.886 1.882-1.886h11.921c.942 0 1.883.786 1.883 1.886v4.085zm42.666 12.729c6.746 0 12.079-4.086 12.079-10.057 0-2.986-1.882-8.957-1.882-8.957-1.412-4.243-5.49-7.386-10.197-7.386-4.705 0-8.784 2.986-10.196 7.386 0 0-1.882 5.971-1.882 8.957 0 5.814 5.49 10.057 12.078 10.057zm7.687-6.914c0 .943-.785 1.885-1.883 1.885-1.098 0-1.882-.785-1.882-1.885s.784-1.886 1.882-1.886c1.098 0 1.883.943 1.883 1.886zm-14.588-11.629c0-1.1.94-1.886 1.882-1.886h10.196c1.098 0 1.882.943 1.882 1.886v2.986c0 1.1-.94 1.886-1.882 1.886h-10.196c-1.098 0-1.882-.943-1.882-1.886v-2.986zm1.098 9.9c.94 0 1.725.786 1.725 1.729 0 .943-.784 1.728-1.725 1.728a1.742 1.742 0 0 1-1.726-1.728c0-.943.784-1.729 1.726-1.729z" fill-rule="nonzero"/><path d="M127.686 201.143l.47 1.1h-12.548l.47-1.1c-.47-.157-.94-.314-1.411-.629l-4.079 4.557h3.922l.47-1.1h13.804l.47 1.1h3.922l-4.078-4.557c-.47.157-.941.315-1.412.629z"/></g><path d="M5.647 4.871C3.765 4.4 2.353 3.614 1.255 2.2L2.98.786c.785.943 1.883 1.571 3.295 1.885l-.628 2.2z" fill="url(#Tickets_-_Wallet__c)" transform="translate(1.569 94.286)"/><path d="M200.941 138.443H192v-2.2h8.941v2.2zm-17.882 0h-8.941v-2.2h8.94v2.2zm-17.883 0h-8.94v-2.2h8.94v2.2zm-17.882 0h-8.941v-2.2h8.941v2.2zm-18.04 0h-8.94v-2.2h8.94v2.2zm-17.881 0h-8.942v-2.2h8.942v2.2zm-17.883 0h-8.94v-2.2h8.941v2.2zm-18.039 0H66.51v-2.2h8.941v2.2zm-17.882 0h-8.942v-2.2h8.942v2.2zm-17.883 0h-8.94v-2.2h8.94v2.2zm-17.882 0h-8.941v-2.2h8.94v2.2zm188.392-1.257l-.941-2.043c2.667-1.1 4.549-3.143 5.647-5.5l2.04.943c-1.099 2.828-3.609 5.343-6.746 6.6zm7.843-16.029h-2.196V112.2h2.196v8.957zm0-17.914h-2.196v-8.957h2.196v8.957zm0-17.914h-2.196V76.37h2.196v8.958zm0-18.072h-2.196V58.3h2.196v8.957zm0-17.914h-2.196v-8.957h2.196v8.957zm0-17.914h-2.196V22.47h2.196v8.958zm-2.51-17.758C215.06 11 213.333 8.8 210.98 7.23l1.255-1.886c2.824 1.886 4.863 4.714 5.49 7.857l-2.196.471zm-12.392-8.328h-8.94v-2.2h8.94v2.2zm-17.882 0h-8.941v-2.2h8.94v2.2zm-18.04 0h-8.94v-2.2h8.94v2.2zm-17.882 0h-8.94v-2.2h8.94v2.2zm-17.882 0h-8.941v-2.2h8.941v2.2zm-18.04 0h-8.94v-2.2h8.94v2.2zm-17.882 0h-8.94v-2.2h8.94v2.2zm-17.882 0h-8.941v-2.2h8.941v2.2zm-17.882 0h-8.941v-2.2h8.94v2.2zm-18.04 0h-8.94v-2.2h8.94v2.2zm-17.882 0h-8.941v-2.2h8.941v2.2z" fill="url(#Tickets_-_Wallet__d)" fill-rule="nonzero" transform="translate(1.569 94.286)"/><path d="M3.294 136.871C1.882 135.614.941 133.886.941 132h2.196c0 1.1.628 2.357 1.569 3.143l-1.412 1.728z" fill="url(#Tickets_-_Wallet__e)" transform="translate(1.569 94.286)"/><path d="M226.824 145.2h-43.138c-6.431 0-11.764 5.343-11.764 11.943v24.043c0 6.6 5.176 11.943 11.764 11.943h43.138V145.2z" fill="url(#Tickets_-_Wallet__f)"/><path d="M180.549 188.1h55.216c1.725 0 2.98-1.571 2.98-3.457v-41.957c0-1.886-1.412-3.457-2.98-3.457h-55.216c-6.745 0-12.235 5.5-12.235 12.1v24.514c0 6.757 5.49 12.257 12.235 12.257z" fill="#5E8EC8"/><ellipse fill="url(#Tickets_-_Wallet__g)" cx="192.157" cy="163.586" rx="11.451" ry="11.471"/></g></svg>