<svg height="512" fill="#041637bd" viewBox="0 0 60 52" width="512" xmlns="http://www.w3.org/2000/svg"><g id="012---Right-Arrow"><path id="Shape" d="m59.264 20.45-25-19.895c-.5984408-.48803872-1.4243771-.5879576-2.121933-.25670403-.6975559.33125356-1.1420914 1.03449087-1.142067 1.80670403v8.895h-29c-1.1045695 0-2 .8954305-2 2v26c0 1.1045695.8954305 2 2 2h29v8.9c.0025494.7682143.4448916 1.4670764 1.1381189 1.7981286.6932273.3310523 1.51481.2357804 2.1138811-.2451286l25-19.891c.4750591-.3789007.7506258-.9543488.748-1.562v-8c.000019-.6010079-.2702379-1.170163-.736-1.55zm-57.264-7.45h29c1.105154-.000546 2.0016946-.8948508 2.005-2v-8.888l24.995 19.888-25 19.9v-8.9c0-1.1045695-.8954305-2-2-2h-29zm0 26v-6h29v6zm31 10.9v-6c.4562405-.0000581.898477-.157596 1.252-.446l23.751-18.9v5.446z"/><path id="Shape" d="m5 17h17c.5522847 0 1-.4477153 1-1s-.4477153-1-1-1h-17c-.55228475 0-1 .4477153-1 1s.44771525 1 1 1z"/><path id="Shape" d="m26 17h5c.5522847 0 1-.4477153 1-1s-.4477153-1-1-1h-5c-.5522847 0-1 .4477153-1 1s.4477153 1 1 1z"/></g></svg>