<?xml version="1.0" encoding="iso-8859-1"?>
<!-- Generator: Adobe Illustrator 16.0.0, SVG Export Plug-In . SVG Version: 6.00 Build 0)  -->
<!DOCTYPE svg PUBLIC "-//W3C//DTD SVG 1.1//EN" "http://www.w3.org/Graphics/SVG/1.1/DTD/svg11.dtd">
<svg version="1.1" id="Capa_1" xmlns="http://www.w3.org/2000/svg" xmlns:xlink="http://www.w3.org/1999/xlink" x="0px"
  y="0px" width="45.773px" height="45.774px" viewBox="0 0 45.773 45.774"
  style="enable-background:new 0 0 45.773 45.774;" fill="#132968" xml:space="preserve">
  <g>
    <g>
      <path d="M8.063,21.133c0.536-3.052,3.165-5.317,6.334-5.317c2.062,0,3.88,0.971,5.053,2.48c2.514-2.372,5.729-4.01,9.304-4.554
			C28.189,6.307,21.978,0.446,14.396,0.446C6.445,0.446,0,6.89,0,14.841c0,7.841,6.271,14.229,14.072,14.402
			c0.291-2.992,1.344-5.82,2.962-8.11H8.063z M17.979,8.508c1,0,1.812,1.451,1.812,3.225c0,0.144-0.013,0.244-0.023,0.435h-3.564
			c-0.011-0.19-0.032-0.289-0.032-0.435C16.171,9.958,16.98,8.508,17.979,8.508z M10.854,8.508c0.999,0,1.81,1.451,1.81,3.225
			c0,0.144-0.013,0.244-0.023,0.435H9.077c-0.011-0.19-0.032-0.289-0.032-0.435C9.043,9.958,9.854,8.508,10.854,8.508z" />
      <path d="M31.378,16.536c-7.951,0-14.397,6.445-14.397,14.396c0,7.949,6.446,14.396,14.397,14.396
			c7.949,0,14.396-6.446,14.396-14.396C45.773,22.981,39.327,16.536,31.378,16.536z M34.962,25.618c0.998,0,1.81,1.434,1.81,3.205
			c0,0.145-0.014,0.32-0.023,0.417h-3.562c-0.012-0.097-0.033-0.271-0.033-0.417C33.15,27.049,33.962,25.618,34.962,25.618z
			 M27.834,25.614c0.999,0,1.811,1.438,1.811,3.209c0,0.145-0.014,0.32-0.023,0.417h-3.562c-0.013-0.097-0.033-0.271-0.033-0.417
			C26.023,27.049,26.834,25.614,27.834,25.614z M31.378,39.221c-3.17,0-5.798-2.258-6.333-5.31h12.666
			C37.175,36.963,34.547,39.221,31.378,39.221z" />
    </g>
  </g>
  <g>
  </g>
  <g>
  </g>
  <g>
  </g>
  <g>
  </g>
  <g>
  </g>
  <g>
  </g>
  <g>
  </g>
  <g>
  </g>
  <g>
  </g>
  <g>
  </g>
  <g>
  </g>
  <g>
  </g>
  <g>
  </g>
  <g>
  </g>
  <g>
  </g>
</svg>