<svg height="512pt" fill="#6851f1" viewBox="0 0 512 512" width="512pt" xmlns="http://www.w3.org/2000/svg"><path d="m175.671875 363.941406c-2.640625 0-5.210937 1.058594-7.070313 2.929688-1.871093 1.859375-2.929687 4.4375-2.929687 7.070312 0 2.628906 1.058594 5.207032 2.929687 7.070313 1.859376 1.859375 4.4375 2.929687 7.070313 2.929687 2.628906 0 5.207031-1.070312 7.066406-2.929687 1.863281-1.863281 2.933594-4.441407 2.933594-7.070313 0-2.640625-1.070313-5.210937-2.933594-7.070312-1.859375-1.871094-4.4375-2.929688-7.066406-2.929688zm0 0"/><path d="m321.46875 50c0-5.523438-4.480469-10-10-10-5.523438 0-10 4.476562-10 10v64c0 5.523438 4.476562 10 10 10 5.519531 0 10-4.476562 10-10zm0 0"/><path d="m414.566406 124c5.523438 0 10-4.476562 10-10v-28.320312l20.390625 33.519531c1.847657 3.035156 5.117188 4.804687 8.542969 4.804687.894531 0 1.804688-.121094 2.699219-.375 4.316406-1.207031 7.300781-5.144531 7.300781-9.628906v-64c0-5.523438-4.476562-10-10-10s-10 4.476562-10 10v28.320312l-20.390625-33.519531c-2.332031-3.828125-6.925781-5.640625-11.242187-4.429687-4.316407 1.207031-7.300782 5.144531-7.300782 9.628906v64c0 5.523438 4.476563 10 10 10zm0 0"/><path d="m207.519531 46.800781c-1.375-4.0625-5.1875-6.800781-9.476562-6.800781-4.289063 0-8.101563 2.734375-9.476563 6.800781l-21.609375 64c-1.769531 5.230469 1.039063 10.90625 6.273438 12.675781 5.230469 1.761719 10.90625-1.042968 12.675781-6.277343l1.304688-3.863281h21.664062l1.304688 3.863281c1.410156 4.171875 5.300781 6.804687 9.472656 6.804687 1.0625 0 2.140625-.167968 3.203125-.527344 5.230469-1.765624 8.039062-7.441406 6.273437-12.675781zm-13.554687 46.53125 4.078125-12.078125 4.078125 12.078125zm0 0"/><path d="m152.601562 40h-35.203124c-5.519532 0-10 4.476562-10 10s4.480468 10 10 10h7.601562v54c0 5.523438 4.476562 10 10 10s10-4.476562 10-10v-54h7.601562c5.519532 0 10-4.476562 10-10s-4.480468-10-10-10zm0 0"/><path d="m280.265625 40h-35.199219c-5.523437 0-10 4.476562-10 10s4.476563 10 10 10h7.601563v54c0 5.523438 4.476562 10 10 10 5.523437 0 10-4.476562 10-10v-54h7.597656c5.523437 0 10-4.476562 10-10s-4.476563-10-10-10zm0 0"/><path d="m364.496094 124c16.269531 0 29.503906-13.234375 29.503906-29.503906v-24.992188c0-16.269531-13.234375-29.503906-29.503906-29.503906-16.265625 0-29.5 13.234375-29.5 29.503906v24.992188c0 16.269531 13.234375 29.503906 29.5 29.503906zm-9.5-54.496094c0-5.242187 4.261718-9.503906 9.5-9.503906 5.242187 0 9.503906 4.261719 9.503906 9.503906v24.992188c0 5.242187-4.261719 9.503906-9.503906 9.503906-5.238282 0-9.5-4.261719-9.5-9.503906zm0 0"/><path d="m80.5 72h-6.523438c-3.308593 0-6-2.691406-6-6s2.691407-6 6-6h11.722657c5.523437 0 10-4.476562 10-10s-4.476563-10-10-10h-11.722657c-14.335937 0-26 11.664062-26 26s11.664063 26 26 26h6.523438c3.308594 0 6 2.691406 6 6s-2.691406 6-6 6h-17.199219c-5.523437 0-10 4.476562-10 10s4.476563 10 10 10h17.199219c14.335938 0 26-11.664062 26-26s-11.664062-26-26-26zm0 0"/><path d="m502 164c5.523438 0 10-4.476562 10-10v-144c0-5.523438-4.476562-10-10-10h-492c-5.523438 0-10 4.476562-10 10v144c0 5.523438 4.476562 10 10 10h24v199.9375h-24c-5.523438 0-10 4.476562-10 10v56c0 5.523438 4.476562 10 10 10h36v52.0625h-36c-5.523438 0-10 4.476562-10 10s4.476562 10 10 10h492c5.523438 0 10-4.476562 10-10s-4.476562-10-10-10h-36v-52.0625h36c5.523438 0 10-4.476562 10-10v-56c0-5.523438-4.476562-10-10-10h-24v-199.9375zm-448 0h20v199.9375h-20zm12 275.9375h60v52.0625h-60zm300 0v52.0625h-60v-52.0625zm-80 52.0625h-60v-52.0625h60zm-80 0h-60v-52.0625h60zm240 0h-60v-52.0625h60zm46-72.0625h-472v-36h116c5.523438 0 10-4.476562 10-10s-4.476562-10-10-10h-42v-199.9375h217.46875c5.519531 0 10-4.476562 10-10s-4.480469-10-10-10h-291.46875v-124h472v124h-97c-5.523438 0-10 4.476562-10 10s4.476562 10 10 10h23v199.9375h-202c-5.523438 0-10 4.476562-10 10s4.476562 10 10 10h276zm-34-56h-20v-199.9375h20zm0 0"/><path d="m352.671875 144c-2.640625 0-5.210937 1.070312-7.070313 2.929688-1.871093 1.859374-2.929687 4.441406-2.929687 7.070312s1.058594 5.210938 2.929687 7.070312c1.859376 1.859376 4.429688 2.929688 7.070313 2.929688 2.628906 0 5.207031-1.070312 7.066406-2.929688 1.863281-1.859374 2.933594-4.441406 2.933594-7.070312s-1.070313-5.210938-2.933594-7.070312c-1.859375-1.859376-4.4375-2.929688-7.066406-2.929688zm0 0"/></svg>