<svg id="Capa_1" enable-background="new 0 0 512 512" height="512" viewBox="0 0 512 512" width="512" fill="#132968" xmlns="http://www.w3.org/2000/svg"><g><path d="m418.333 120.474h93.667v211.333h-93.667z"/><path d="m0 120.474h93.667v211.333h-93.667z"/><path d="m228.333 257.141h55.334v74.666h-55.334z"/><path d="m388.333 116.405-132.333-106.879-132.333 106.879v215.403h74.666v-104.667h115.334v104.666h74.666zm-132.333 66.069c-25.916 0-47-21.084-47-47s21.084-47 47-47 47 21.084 47 47-21.084 47-47 47z"/><path d="m0 406.803h35.168v65.671h-35.168v30h512v-30h-35.167v-65.671h35.167v-30h-512zm75.168 65.671v-65.671h60.416v65.671zm100.416 0v-65.671h60.416v65.671zm100.416 0v-65.671h60.416v65.671zm100.416 0v-65.671h60.417v65.671z"/><circle cx="256" cy="135.474" r="17"/></g></svg>