<?xml version="1.0" encoding="iso-8859-1"?>
<!-- Generator: Adobe Illustrator 19.0.0, SVG Export Plug-In . SVG Version: 6.00 Build 0)  -->
<svg version="1.1" id="Capa_1" xmlns="http://www.w3.org/2000/svg" xmlns:xlink="http://www.w3.org/1999/xlink" x="0px" y="0px"
	 viewBox="0 0 512 512" style="enable-background:new 0 0 512 512;" fill="#6851f1" xml:space="preserve">
<g>
	<g>
		<path d="M177.344,386.347c-4.587-3.669-11.285-2.901-14.997,1.664L77.013,494.677c-3.669,4.608-2.923,11.307,1.664,14.997
			c1.963,1.557,4.331,2.325,6.656,2.325c3.115,0,6.229-1.365,8.341-3.989l85.333-106.667
			C182.677,396.736,181.931,390.037,177.344,386.347z"/>
	</g>
</g>
<g>
	<g>
		<path d="M434.987,494.656l-85.333-106.667c-3.669-4.565-10.389-5.355-14.997-1.664c-4.587,3.691-5.333,10.389-1.664,14.997
			l85.333,106.667c2.112,2.645,5.205,4.011,8.341,4.011c2.347,0,4.693-0.768,6.656-2.347
			C437.909,505.963,438.656,499.264,434.987,494.656z"/>
	</g>
</g>
<g>
	<g>
		<path d="M405.333,469.333H106.667C100.779,469.333,96,474.112,96,480c0,5.888,4.779,10.667,10.667,10.667h298.667
			c5.888,0,10.667-4.779,10.667-10.667C416,474.112,411.221,469.333,405.333,469.333z"/>
	</g>
</g>
<g>
	<g>
		<path d="M373.333,426.667H138.667c-5.888,0-10.667,4.779-10.667,10.667c0,5.888,4.779,10.667,10.667,10.667h234.667
			c5.888,0,10.667-4.779,10.667-10.667C384,431.445,379.221,426.667,373.333,426.667z"/>
	</g>
</g>
<g>
	<g>
		<circle cx="149.333" cy="330.667" r="10.667"/>
	</g>
</g>
<g>
	<g>
		<path d="M419.328,70.507C417.152,30.976,384.405,0,344.789,0H167.211c-39.616,0-72.363,30.976-74.539,70.528L85.867,192.96
			c61.696,8.213,145.109,79.381,170.133,101.909c25.024-22.528,108.437-93.696,170.133-101.931L419.328,70.507z M245.333,170.667
			c0,5.44-4.075,10.005-9.493,10.603l-96,10.667c-0.384,0.043-0.768,0.064-1.173,0.064c-2.624,0-5.141-0.96-7.104-2.709
			c-2.261-2.027-3.563-4.928-3.563-7.957v-74.667c0-5.44,4.075-10.005,9.493-10.603l96-10.667c3.029-0.32,6.037,0.619,8.299,2.667
			c2.24,2.005,3.541,4.907,3.541,7.936V170.667z M224,53.333c0-17.643,14.357-32,32-32s32,14.357,32,32c0,17.643-14.357,32-32,32
			S224,70.976,224,53.333z M384,181.333c0,3.029-1.301,5.931-3.563,7.957c-1.963,1.749-4.48,2.709-7.104,2.709
			c-0.405,0-0.789-0.021-1.173-0.064l-96-10.667c-5.419-0.597-9.493-5.163-9.493-10.603V96c0-3.029,1.301-5.931,3.563-7.957
			c2.261-2.027,5.269-2.965,8.299-2.667l95.979,10.688c5.419,0.597,9.493,5.163,9.493,10.603V181.333z"/>
	</g>
</g>
<g>
	<g>
		<circle cx="362.667" cy="330.667" r="10.667"/>
	</g>
</g>
<g>
	<g>
		<circle cx="256" cy="53.333" r="10.667"/>
	</g>
</g>
<g>
	<g>
		<path d="M434.795,349.035l-7.488-134.784c-64.235,9.365-162.944,101.845-163.989,102.827c-0.619,0.597-1.387,0.917-2.112,1.344
			c-0.427,0.235-0.768,0.597-1.216,0.768c-1.28,0.533-2.624,0.811-3.989,0.811s-2.731-0.277-4.011-0.811
			c-0.427-0.171-0.768-0.512-1.195-0.747c-0.725-0.405-1.493-0.747-2.133-1.344c-1.045-0.981-99.733-93.461-163.989-102.827
			l-7.488,134.784c-0.832,14.784,4.331,28.864,14.507,39.616c10.176,10.731,23.936,16.661,38.741,16.661h251.115
			c14.805,0,28.565-5.931,38.741-16.683S435.627,363.819,434.795,349.035z M149.333,362.667c-17.643,0-32-14.357-32-32
			c0-17.643,14.357-32,32-32c17.643,0,32,14.357,32,32C181.333,348.309,166.976,362.667,149.333,362.667z M362.667,362.667
			c-17.643,0-32-14.357-32-32c0-17.643,14.357-32,32-32s32,14.357,32,32C394.667,348.309,380.309,362.667,362.667,362.667z"/>
	</g>
</g>
<g>
</g>
<g>
</g>
<g>
</g>
<g>
</g>
<g>
</g>
<g>
</g>
<g>
</g>
<g>
</g>
<g>
</g>
<g>
</g>
<g>
</g>
<g>
</g>
<g>
</g>
<g>
</g>
<g>
</g>
</svg>
