<svg xmlns="http://www.w3.org/2000/svg" width="408.392" height="512.07" viewBox="0 0 408.392 512.07">
  <g id="Group_37" data-name="Group 37" transform="translate(-1270 252.545)">
    <path id="Path_69" data-name="Path 69" d="M106.051,231.211V130.239a16.72,16.72,0,0,1,16.72-16.72H389.3a16.72,16.72,0,0,1,16.72,16.72V231.212a16.72,16.72,0,0,1-16.72,16.72H122.771a16.722,16.722,0,0,1-16.72-16.721Z" transform="translate(1218.161 -252.545)" fill="#feda87"/>
    <circle id="Ellipse_7" data-name="Ellipse 7" cx="32.046" cy="32.046" r="32.046" transform="translate(1325.605 45.138)" fill="#feda87"/>
    <circle id="Ellipse_8" data-name="Ellipse 8" cx="32.046" cy="32.046" r="32.046" transform="translate(1557.302 45.138)" fill="#feda87"/>
    <g id="Group_32" data-name="Group 32" transform="translate(1218.161 -252.545)">
      <path id="Path_74" data-name="Path 74" d="M300.784,90.813a14.4,14.4,0,0,0,14.384-14.385V51.841a14.4,14.4,0,0,0-14.384-14.385h-89.5A14.4,14.4,0,0,0,196.9,51.841V76.428a14.4,14.4,0,0,0,14.384,14.385ZM211.9,52.456h88.268V75.813H211.9Z" fill="#006bb1"/>
      <path id="Path_75" data-name="Path 75" d="M98.551,130.27V231.243a24.247,24.247,0,0,0,24.22,24.219H389.3a24.247,24.247,0,0,0,24.22-24.219V130.27a24.247,24.247,0,0,0-24.22-24.22H375.524a7.5,7.5,0,0,0,0,15H389.3a9.23,9.23,0,0,1,9.22,9.22V231.243a9.23,9.23,0,0,1-9.22,9.219H122.771a9.23,9.23,0,0,1-9.22-9.219V130.27a9.23,9.23,0,0,1,9.22-9.22H340.524a7.5,7.5,0,0,0,0-15H122.771a24.247,24.247,0,0,0-24.22,24.22Z" fill="#006bb1"/>
      <path id="Path_76" data-name="Path 76" d="M457.221,478.31,420.266,414.3a48.022,48.022,0,0,0,32.593-45.412V81.263A81.243,81.243,0,0,0,371.6,0H140.473A81.354,81.354,0,0,0,59.211,81.263V255.2a7.5,7.5,0,0,0,15,0V81.263A66.338,66.338,0,0,1,140.473,15H371.6a66.259,66.259,0,0,1,66.262,66.263v241H410.01a39.606,39.606,0,0,0-38.823-32.046h-231.7a39.606,39.606,0,0,0-38.823,32.046H74.211V290.2a7.5,7.5,0,0,0-15,0v39.558c0,43.584-.193,41.888.663,47.028A48.1,48.1,0,0,0,91.8,414.311l-36.95,64a22.5,22.5,0,0,0,38.971,22.5l10.657-18.458H407.594l10.657,18.458a22.5,22.5,0,0,0,38.97-22.5ZM395.732,329.761a24.546,24.546,0,1,1-24.546-24.546A24.574,24.574,0,0,1,395.732,329.761ZM340.2,305.215a39.486,39.486,0,0,0,0,49.091H170.475a39.5,39.5,0,0,0,0-49.091Zm-200.711,0a24.546,24.546,0,1,1-24.546,24.546A24.581,24.581,0,0,1,139.49,305.215Zm-38.832,32.046a39.636,39.636,0,0,0,38.8,32.044H371.186a39.65,39.65,0,0,0,38.833-32.045h27.84V368.89a33,33,0,0,1-32.948,32.949H107.16A32.982,32.982,0,0,1,74.426,372.6c-.289-2.585-.215-.812-.215-35.34h26.447ZM80.829,493.311a7.5,7.5,0,0,1-12.99-7.5l39.821-68.972h17.32Zm32.308-25.959,8.66-15H390.273l8.66,15Zm17.32-30L142.3,416.839H369.769l11.843,20.513Zm311.028,58.7a7.5,7.5,0,0,1-10.245-2.745l-44.151-76.472h17.32L444.23,485.81A7.494,7.494,0,0,1,441.485,496.055Z" fill="#006bb1"/>
    </g>
  </g>
</svg>
